<svg width="36" height="36" viewBox="0 0 36 36" fill="none" xmlns="http://www.w3.org/2000/svg">
<path d="M36 18C36 22.7738 34.1035 27.3524 30.728 30.728C27.3524 34.1035 22.7738 36 18 36C13.2261 36 8.64774 34.1035 5.27209 30.728C1.89642 27.3524 0 22.7738 0 18C0 13.2261 1.89642 8.64774 5.27209 5.27209C8.64774 1.89642 13.2261 0 18 0C22.7738 0 27.3524 1.89642 30.728 5.27209C34.1035 8.64774 36 13.2261 36 18Z" fill="url(#paint0_linear_5_476)"/>
<g filter="url(#filter0_d_5_476)">
<path d="M11.6992 30.4897C11.6992 31.6777 14.5185 31.4887 17.9992 31.4887C21.4777 31.4887 24.2992 31.6777 24.2992 30.4897C24.2992 29.0587 21.4777 28.125 17.9992 28.125C14.5185 28.125 11.6992 29.0587 11.6992 30.4897Z" fill="#222222"/>
</g>
<path d="M11.6992 30.4897C11.6992 31.6777 14.5185 31.4887 17.9992 31.4887C21.4777 31.4887 24.2992 31.6777 24.2992 30.4897C24.2992 29.0587 21.4777 28.125 17.9992 28.125C14.5185 28.125 11.6992 29.0587 11.6992 30.4897Z" fill="url(#paint1_linear_5_476)"/>
<path d="M8.09783 22.1201C8.09783 20.3404 9.30835 18.9004 10.7978 18.9004C12.2896 18.9004 13.4978 20.3404 13.4978 22.1201C13.4978 22.8604 13.2886 23.5444 12.9308 24.0867C12.7637 24.3364 12.5079 24.5133 12.2153 24.5817C11.8778 24.6627 11.3761 24.7504 10.7978 24.7504C10.2196 24.7504 9.7156 24.6627 9.38035 24.5817C9.08744 24.5139 8.83151 24.3369 8.66483 24.0867C8.28813 23.5005 8.09105 22.817 8.09783 22.1201ZM22.4978 22.1201C22.4978 20.3404 23.7061 18.9004 25.1979 18.9004C26.6874 18.9004 27.8979 20.3404 27.8979 22.1201C27.8979 22.8604 27.6864 23.5444 27.3309 24.0867C27.1641 24.3369 26.9083 24.5139 26.6154 24.5817C26.151 24.6928 25.6753 24.7493 25.1979 24.7504C24.6196 24.7504 24.1179 24.6627 23.7804 24.5817C23.4872 24.5133 23.2307 24.3364 23.0626 24.0867C22.6875 23.4999 22.4914 22.8165 22.4978 22.1201Z" fill="url(#paint2_linear_5_476)"/>
<g filter="url(#filter1_i_5_476)">
<path d="M8.09783 22.1201C8.09783 20.3404 9.30835 18.9004 10.7978 18.9004C12.2896 18.9004 13.4978 20.3404 13.4978 22.1201C13.4978 22.8604 13.2886 23.5444 12.9308 24.0867C12.7637 24.3364 12.5079 24.5133 12.2153 24.5817C11.8778 24.6627 11.3761 24.7504 10.7978 24.7504C10.2196 24.7504 9.7156 24.6627 9.38035 24.5817C9.08744 24.5139 8.83151 24.3369 8.66483 24.0867C8.28813 23.5005 8.09105 22.817 8.09783 22.1201ZM22.4978 22.1201C22.4978 20.3404 23.7061 18.9004 25.1979 18.9004C26.6874 18.9004 27.8979 20.3404 27.8979 22.1201C27.8979 22.8604 27.6864 23.5444 27.3309 24.0867C27.1641 24.3369 26.9083 24.5139 26.6154 24.5817C26.151 24.6928 25.6753 24.7493 25.1979 24.7504C24.6196 24.7504 24.1179 24.6627 23.7804 24.5817C23.4872 24.5133 23.2307 24.3364 23.0626 24.0867C22.6875 23.4999 22.4914 22.8165 22.4978 22.1201Z" fill="#222222"/>
</g>
<path d="M11.1808 20.9977C11.1918 21.0502 11.1971 21.1037 11.1965 21.1574C11.1965 21.6097 10.8005 21.9809 10.31 21.9809C9.82178 21.9809 9.42578 21.6097 9.42578 21.1574C9.42578 20.9707 9.49328 20.7974 9.60578 20.6602C10.1098 20.7794 10.6385 20.8942 11.1808 20.9977ZM24.5143 21.9809C24.0396 21.9809 23.6526 21.6367 23.6301 21.1979C24.2128 21.1124 24.7911 21.0067 25.3536 20.8919C25.3846 20.9777 25.3999 21.0684 25.3986 21.1597C25.3986 21.6097 25.0048 21.9809 24.5143 21.9809Z" fill="#4F4F67"/>
<g filter="url(#filter2_d_5_476)">
<path d="M20.2491 17.1C20.2491 16.0965 20.6158 15.75 21.2503 15.75C21.8803 15.75 22.1818 16.371 22.3888 18.1485C24.9268 18.1485 29.2243 16.947 29.6383 16.947C30.0388 16.947 30.2616 17.1382 30.3516 17.5477C30.4303 17.9032 30.2998 18.2408 29.8543 18.4478C28.4571 19.0935 24.3576 20.5515 20.8903 20.5515C20.5123 20.5515 20.2491 20.358 20.2491 19.8743V17.1ZM13.6093 18.1485C13.8163 16.371 14.1178 15.75 14.7478 15.75C15.3823 15.75 15.7491 16.0965 15.7491 17.1V19.8743C15.7491 20.358 15.4858 20.5515 15.1078 20.5515C11.6406 20.5515 7.54107 19.0935 6.14382 18.4478C5.69832 18.2408 5.56782 17.9032 5.64657 17.5477C5.73882 17.1382 5.96157 16.947 6.35982 16.947C6.77382 16.947 11.0713 18.1485 13.6093 18.1485Z" fill="#222222"/>
</g>
<path d="M20.2491 17.1C20.2491 16.0965 20.6158 15.75 21.2503 15.75C21.8803 15.75 22.1818 16.371 22.3888 18.1485C24.9268 18.1485 29.2243 16.947 29.6383 16.947C30.0388 16.947 30.2616 17.1382 30.3516 17.5477C30.4303 17.9032 30.2998 18.2408 29.8543 18.4478C28.4571 19.0935 24.3576 20.5515 20.8903 20.5515C20.5123 20.5515 20.2491 20.358 20.2491 19.8743V17.1ZM13.6093 18.1485C13.8163 16.371 14.1178 15.75 14.7478 15.75C15.3823 15.75 15.7491 16.0965 15.7491 17.1V19.8743C15.7491 20.358 15.4858 20.5515 15.1078 20.5515C11.6406 20.5515 7.54107 19.0935 6.14382 18.4478C5.69832 18.2408 5.56782 17.9032 5.64657 17.5477C5.73882 17.1382 5.96157 16.947 6.35982 16.947C6.77382 16.947 11.0713 18.1485 13.6093 18.1485Z" fill="url(#paint3_linear_5_476)"/>
<defs>
<filter id="filter0_d_5_476" x="10.6992" y="28.125" width="14.6" height="5.37476" filterUnits="userSpaceOnUse" color-interpolation-filters="sRGB">
<feFlood flood-opacity="0" result="BackgroundImageFix"/>
<feColorMatrix in="SourceAlpha" type="matrix" values="0 0 0 0 0 0 0 0 0 0 0 0 0 0 0 0 0 0 127 0" result="hardAlpha"/>
<feOffset dy="1"/>
<feGaussianBlur stdDeviation="0.5"/>
<feColorMatrix type="matrix" values="0 0 0 0 1 0 0 0 0 0.509681 0 0 0 0 0 0 0 0 0.371207 0"/>
<feBlend mode="normal" in2="BackgroundImageFix" result="effect1_dropShadow_5_476"/>
<feBlend mode="normal" in="SourceGraphic" in2="effect1_dropShadow_5_476" result="shape"/>
</filter>
<filter id="filter1_i_5_476" x="8.09766" y="18.9004" width="19.8002" height="5.84998" filterUnits="userSpaceOnUse" color-interpolation-filters="sRGB">
<feFlood flood-opacity="0" result="BackgroundImageFix"/>
<feBlend mode="normal" in="SourceGraphic" in2="BackgroundImageFix" result="shape"/>
<feColorMatrix in="SourceAlpha" type="matrix" values="0 0 0 0 0 0 0 0 0 0 0 0 0 0 0 0 0 0 127 0" result="hardAlpha"/>
<feOffset/>
<feGaussianBlur stdDeviation="0.5"/>
<feComposite in2="hardAlpha" operator="arithmetic" k2="-1" k3="1"/>
<feColorMatrix type="matrix" values="0 0 0 0 0.0387428 0 0 0 0 0.0406183 0 0 0 0 0.0875053 0 0 0 1 0"/>
<feBlend mode="normal" in2="shape" result="effect1_innerShadow_5_476"/>
</filter>
<filter id="filter2_d_5_476" x="5.525" y="15.75" width="24.9482" height="5.50151" filterUnits="userSpaceOnUse" color-interpolation-filters="sRGB">
<feFlood flood-opacity="0" result="BackgroundImageFix"/>
<feColorMatrix in="SourceAlpha" type="matrix" values="0 0 0 0 0 0 0 0 0 0 0 0 0 0 0 0 0 0 127 0" result="hardAlpha"/>
<feOffset dy="0.6"/>
<feGaussianBlur stdDeviation="0.05"/>
<feColorMatrix type="matrix" values="0 0 0 0 0.565875 0 0 0 0 0.151272 0 0 0 0 0 0 0 0 0.15024 0"/>
<feBlend mode="normal" in2="BackgroundImageFix" result="effect1_dropShadow_5_476"/>
<feBlend mode="normal" in="SourceGraphic" in2="effect1_dropShadow_5_476" result="shape"/>
</filter>
<linearGradient id="paint0_linear_5_476" x1="18" y1="0" x2="18" y2="24.1897" gradientUnits="userSpaceOnUse">
<stop stop-color="#E04300"/>
<stop offset="1" stop-color="#FFA320"/>
</linearGradient>
<linearGradient id="paint1_linear_5_476" x1="17.9988" y1="28.5817" x2="17.9988" y2="31.5" gradientUnits="userSpaceOnUse">
<stop stop-color="#3D0D00"/>
<stop offset="1" stop-color="#661C04"/>
</linearGradient>
<linearGradient id="paint2_linear_5_476" x1="17.9985" y1="18.8995" x2="17.9985" y2="24.7495" gradientUnits="userSpaceOnUse">
<stop stop-color="#191A33"/>
<stop offset="0.872" stop-color="#3B426A"/>
</linearGradient>
<linearGradient id="paint3_linear_5_476" x1="26.1337" y1="20.9992" x2="26.1337" y2="15.75" gradientUnits="userSpaceOnUse">
<stop stop-color="#9A2F00"/>
<stop offset="1" stop-color="#D44800"/>
</linearGradient>
</defs>
</svg>
