<svg width="36" height="36" viewBox="0 0 36 36" fill="none" xmlns="http://www.w3.org/2000/svg">
<path d="M36 18C36 22.7738 34.1035 27.3524 30.728 30.728C27.3524 34.1035 22.7738 36 18 36C13.2261 36 8.64774 34.1035 5.27209 30.728C1.89642 27.3524 0 22.7738 0 18C0 13.2261 1.89642 8.64774 5.27209 5.27209C8.64774 1.89642 13.2261 0 18 0C22.7738 0 27.3524 1.89642 30.728 5.27209C34.1035 8.64774 36 13.2261 36 18Z" fill="url(#paint0_linear_5_485)"/>
<path d="M12.697 24.498C12.3415 28.6492 14.3305 31.5 18.0002 31.5C21.6677 31.5 23.659 28.6492 23.3035 24.498C22.9502 20.3445 20.7947 18 18.0002 18C15.2057 18 13.0502 20.3445 12.697 24.498Z" fill="url(#paint1_linear_5_485)"/>
<path d="M7.875 12.375C7.875 10.512 9.13275 9 10.6875 9C12.2422 9 13.5 10.512 13.5 12.375C13.5 14.2403 12.2422 15.75 10.6875 15.75C9.13275 15.75 7.875 14.2403 7.875 12.375ZM22.5 12.375C22.5 10.512 23.76 9 25.3125 9C26.8673 9 28.125 10.512 28.125 12.375C28.125 14.2403 26.8673 15.75 25.3125 15.75C23.76 15.75 22.5 14.2403 22.5 12.375Z" fill="url(#paint2_linear_5_485)"/>
<g filter="url(#filter0_i_5_485)">
<path d="M7.875 12.375C7.875 10.512 9.13275 9 10.6875 9C12.2422 9 13.5 10.512 13.5 12.375C13.5 14.2403 12.2422 15.75 10.6875 15.75C9.13275 15.75 7.875 14.2403 7.875 12.375ZM22.5 12.375C22.5 10.512 23.76 9 25.3125 9C26.8673 9 28.125 10.512 28.125 12.375C28.125 14.2403 26.8673 15.75 25.3125 15.75C23.76 15.75 22.5 14.2403 22.5 12.375Z" fill="#222222"/>
</g>
<path d="M10.0847 10.2769C10.5032 10.3714 10.7372 10.8439 10.6067 11.3321C10.4785 11.8226 10.0352 12.1421 9.61674 12.0476C9.19824 11.9531 8.96424 11.4806 9.09474 10.9901C9.22299 10.5041 9.66624 10.1801 10.0847 10.2769ZM25.0653 10.4186C25.5288 10.5244 25.7898 11.0486 25.6458 11.5886C25.5018 12.1354 25.0113 12.4886 24.5456 12.3851C24.0821 12.2816 23.8211 11.7551 23.9651 11.2129C24.1068 10.6684 24.5996 10.3129 25.0676 10.4186H25.0653Z" fill="#4E506A"/>
<g filter="url(#filter1_d_5_485)">
<path d="M24.9015 3.81537C25.0185 3.80412 25.1355 3.79962 25.2548 3.79962C26.3505 3.79962 27.4823 4.25862 28.3418 5.06412C28.4968 5.21185 28.5886 5.41392 28.5978 5.62788C28.607 5.84185 28.533 6.05108 28.3913 6.21162C28.3229 6.29034 28.2389 6.35442 28.1451 6.39996C28.0513 6.4455 27.9491 6.47158 27.8447 6.47662C27.7406 6.48166 27.6364 6.46557 27.5385 6.4293C27.4406 6.39306 27.3511 6.33737 27.2753 6.26562C26.6565 5.68287 25.7993 5.36562 25.0433 5.43537C24.7811 5.45499 24.5262 5.53185 24.2969 5.6605C24.0677 5.78918 23.8692 5.96655 23.7158 6.18012C23.6541 6.26382 23.5763 6.33433 23.4869 6.3875C23.3976 6.44067 23.2986 6.47541 23.1958 6.48967C23.0927 6.50391 22.9879 6.49741 22.8875 6.47052C22.7872 6.44364 22.6931 6.39693 22.611 6.33312C22.4429 6.1996 22.3332 6.00601 22.3051 5.79321C22.277 5.58038 22.3326 5.36496 22.4603 5.19237C22.7438 4.80028 23.1087 4.47419 23.5301 4.2365C23.9516 3.99881 24.4193 3.85515 24.9015 3.81537ZM7.65528 5.06412C8.48951 4.27074 9.5912 3.81946 10.7423 3.79962C11.2861 3.78783 11.8246 3.90843 12.3114 4.15107C12.7983 4.39368 13.2188 4.75105 13.5368 5.19237C13.6641 5.36487 13.7198 5.57997 13.6921 5.79262C13.6644 6.00527 13.5555 6.19895 13.3883 6.33312C13.306 6.39697 13.2118 6.44375 13.1112 6.47066C13.0107 6.49757 12.9057 6.50409 12.8025 6.48983C12.6994 6.47559 12.6001 6.44085 12.5106 6.38763C12.4211 6.33444 12.3431 6.26388 12.2813 6.18012C12.1277 5.96664 11.9293 5.78936 11.7 5.6607C11.4707 5.53205 11.216 5.45514 10.9538 5.43537C10.2 5.36562 9.34053 5.68287 8.72178 6.26562C8.64598 6.33737 8.55645 6.39306 8.45857 6.4293C8.3607 6.46557 8.2565 6.48166 8.15226 6.47662C8.04802 6.47158 7.94584 6.4455 7.85193 6.39996C7.75801 6.35442 7.67429 6.29034 7.60578 6.21162C7.46403 6.05108 7.38998 5.84185 7.39921 5.62788C7.40845 5.41392 7.50023 5.21185 7.65528 5.06412Z" fill="#222222"/>
</g>
<path d="M24.9015 3.81537C25.0185 3.80412 25.1355 3.79962 25.2548 3.79962C26.3505 3.79962 27.4823 4.25862 28.3418 5.06412C28.4968 5.21185 28.5886 5.41392 28.5978 5.62788C28.607 5.84185 28.533 6.05108 28.3913 6.21162C28.3229 6.29034 28.2389 6.35442 28.1451 6.39996C28.0513 6.4455 27.9491 6.47158 27.8447 6.47662C27.7406 6.48166 27.6364 6.46557 27.5385 6.4293C27.4406 6.39306 27.3511 6.33737 27.2753 6.26562C26.6565 5.68287 25.7993 5.36562 25.0433 5.43537C24.7811 5.45499 24.5262 5.53185 24.2969 5.6605C24.0677 5.78918 23.8692 5.96655 23.7158 6.18012C23.6541 6.26382 23.5763 6.33433 23.4869 6.3875C23.3976 6.44067 23.2986 6.47541 23.1958 6.48967C23.0927 6.50391 22.9879 6.49741 22.8875 6.47052C22.7872 6.44364 22.6931 6.39693 22.611 6.33312C22.4429 6.1996 22.3332 6.00601 22.3051 5.79321C22.277 5.58038 22.3326 5.36496 22.4603 5.19237C22.7438 4.80028 23.1087 4.47419 23.5301 4.2365C23.9516 3.99881 24.4193 3.85515 24.9015 3.81537ZM7.65528 5.06412C8.48951 4.27074 9.5912 3.81946 10.7423 3.79962C11.2861 3.78783 11.8246 3.90843 12.3114 4.15107C12.7983 4.39368 13.2188 4.75105 13.5368 5.19237C13.6641 5.36487 13.7198 5.57997 13.6921 5.79262C13.6644 6.00527 13.5555 6.19895 13.3883 6.33312C13.306 6.39697 13.2118 6.44375 13.1112 6.47066C13.0107 6.49757 12.9057 6.50409 12.8025 6.48983C12.6994 6.47559 12.6001 6.44085 12.5106 6.38763C12.4211 6.33444 12.3431 6.26388 12.2813 6.18012C12.1277 5.96664 11.9293 5.78936 11.7 5.6607C11.4707 5.53205 11.216 5.45514 10.9538 5.43537C10.2 5.36562 9.34053 5.68287 8.72178 6.26562C8.64598 6.33737 8.55645 6.39306 8.45857 6.4293C8.3607 6.46557 8.2565 6.48166 8.15226 6.47662C8.04802 6.47158 7.94584 6.4455 7.85193 6.39996C7.75801 6.35442 7.67429 6.29034 7.60578 6.21162C7.46403 6.05108 7.38998 5.84185 7.39921 5.62788C7.40845 5.41392 7.50023 5.21185 7.65528 5.06412Z" fill="url(#paint3_linear_5_485)"/>
<defs>
<filter id="filter0_i_5_485" x="7.875" y="9" width="20.25" height="6.75" filterUnits="userSpaceOnUse" color-interpolation-filters="sRGB">
<feFlood flood-opacity="0" result="BackgroundImageFix"/>
<feBlend mode="normal" in="SourceGraphic" in2="BackgroundImageFix" result="shape"/>
<feColorMatrix in="SourceAlpha" type="matrix" values="0 0 0 0 0 0 0 0 0 0 0 0 0 0 0 0 0 0 127 0" result="hardAlpha"/>
<feOffset/>
<feGaussianBlur stdDeviation="0.5"/>
<feComposite in2="hardAlpha" operator="arithmetic" k2="-1" k3="1"/>
<feColorMatrix type="matrix" values="0 0 0 0 0.0980392 0 0 0 0 0.101961 0 0 0 0 0.2 0 0 0 0.819684 0"/>
<feBlend mode="normal" in2="shape" result="effect1_innerShadow_5_485"/>
</filter>
<filter id="filter1_d_5_485" x="4.39844" y="1.79883" width="27.2001" height="8.69836" filterUnits="userSpaceOnUse" color-interpolation-filters="sRGB">
<feFlood flood-opacity="0" result="BackgroundImageFix"/>
<feColorMatrix in="SourceAlpha" type="matrix" values="0 0 0 0 0 0 0 0 0 0 0 0 0 0 0 0 0 0 127 0" result="hardAlpha"/>
<feOffset dy="1"/>
<feGaussianBlur stdDeviation="1.5"/>
<feColorMatrix type="matrix" values="0 0 0 0 0.803922 0 0 0 0 0.388235 0 0 0 0 0.00392157 0 0 0 0.145679 0"/>
<feBlend mode="normal" in2="BackgroundImageFix" result="effect1_dropShadow_5_485"/>
<feBlend mode="normal" in="SourceGraphic" in2="effect1_dropShadow_5_485" result="shape"/>
</filter>
<linearGradient id="paint0_linear_5_485" x1="18" y1="3.69" x2="18" y2="36" gradientUnits="userSpaceOnUse">
<stop stop-color="#FEEA70"/>
<stop offset="1" stop-color="#F69B30"/>
</linearGradient>
<linearGradient id="paint1_linear_5_485" x1="18" y1="18" x2="18" y2="31.5" gradientUnits="userSpaceOnUse">
<stop stop-color="#472315"/>
<stop offset="1" stop-color="#8B3A0E"/>
</linearGradient>
<linearGradient id="paint2_linear_5_485" x1="18" y1="9" x2="18" y2="15.75" gradientUnits="userSpaceOnUse">
<stop stop-color="#191A33"/>
<stop offset="0.872" stop-color="#3B426A"/>
</linearGradient>
<linearGradient id="paint3_linear_5_485" x1="17.9981" y1="3.79775" x2="17.9981" y2="6.49775" gradientUnits="userSpaceOnUse">
<stop stop-color="#E78E0D"/>
<stop offset="1" stop-color="#CB6000"/>
</linearGradient>
</defs>
</svg>
