<svg width="92" height="92" viewBox="0 0 92 92" fill="none" xmlns="http://www.w3.org/2000/svg">
<g clip-path="url(#clip0_5_332)">
<path d="M67.5962 37.3083H52.2891L46.0225 46.0232L39.9131 37.3083H24.4038C14.5975 37.3083 6.64844 29.3586 6.64844 19.5522C6.64844 9.74594 14.5975 1.79688 24.4038 1.79688H67.5962C77.4025 1.79688 85.3516 9.74594 85.3516 19.5522C85.3516 29.3586 77.4025 37.3083 67.5962 37.3083Z" fill="#C9F3FF"/>
<path d="M20.2394 71.5999H12.8231C6.73337 71.5999 1.79688 76.5363 1.79688 82.6261V90.2031H31.2656V82.6261C31.2656 76.5363 26.3291 71.5999 20.2394 71.5999Z" fill="#DC6BD9"/>
<path d="M49.7082 71.5999H42.2918C36.2021 71.5999 31.2656 76.5363 31.2656 82.6261V90.2031H60.7344V82.6261C60.7344 76.5363 55.7979 71.5999 49.7082 71.5999Z" fill="#FEC658"/>
<path d="M79.1769 71.5999H71.7606C65.6709 71.5999 60.7344 76.5363 60.7344 82.6261V90.2031H90.2031V82.6261C90.2031 76.5363 85.2666 71.5999 79.1769 71.5999Z" fill="#DC6BD9"/>
<path d="M16.533 56.0625C12.5103 56.0625 9.25 59.3235 9.25 63.3455V64.3169C9.25 68.3388 12.5103 71.5999 16.533 71.5999C20.5549 71.5999 23.8159 68.3388 23.8159 64.3169V63.3455C23.8159 59.3235 20.5556 56.0625 16.533 56.0625Z" fill="#FCCD9D"/>
<path d="M46.0017 56.0625C41.9791 56.0625 38.7188 59.3235 38.7188 63.3455V64.3169C38.7188 68.3388 41.9791 71.5999 46.0017 71.5999C50.0236 71.5999 53.2847 68.3388 53.2847 64.3169V63.3455C53.2847 59.3235 50.0243 56.0625 46.0017 56.0625Z" fill="#FCCD9D"/>
<path d="M75.4705 56.0625C71.4478 56.0625 68.1875 59.3235 68.1875 63.3455V64.3169C68.1875 68.3388 71.4478 71.5999 75.4705 71.5999C79.4924 71.5999 82.7534 68.3388 82.7534 64.3169V63.3455C82.7534 59.3235 79.4931 56.0625 75.4705 56.0625Z" fill="#FCCD9D"/>
<path d="M67.5962 1.79688H24.4038C14.5975 1.79688 6.64844 9.74594 6.64844 19.5522C6.64844 26.1937 10.2955 31.9823 15.6953 35.0278L15.6777 46.0232L26.3242 37.3083H39.0596L46.0225 46.0232L52.2891 37.3083H65.7502L76.3517 46.0232V35.0012C81.7255 31.9493 85.3516 26.1747 85.3516 19.5522C85.3516 9.74594 77.4025 1.79688 67.5962 1.79688Z" fill="white"/>
<path d="M49.6632 11.7485C48.2292 11.7485 46.9363 12.4076 46.0232 13.4632C45.1093 12.4076 43.8164 11.7485 42.3824 11.7485C39.6141 11.7485 37.3708 14.203 37.3708 17.231C37.3708 21.4734 46.0232 27.3567 46.0232 27.3567C46.0232 27.3567 54.6755 21.4734 54.6755 17.231C54.6755 14.203 52.4315 11.7485 49.6632 11.7485Z" fill="#FF5D5D"/>
<path d="M82.3713 70.2059C83.7274 68.6196 84.5486 66.563 84.5486 64.3169V63.3455C84.5486 58.3388 80.4754 54.2656 75.4688 54.2656C70.4621 54.2656 66.3889 58.3388 66.3889 63.3455V64.3169C66.3889 66.563 67.2101 68.6196 68.5662 70.2059C65.2469 71.0601 62.4456 73.2142 60.7344 76.0899C59.0231 73.2142 56.2218 71.0601 52.9025 70.2059C54.2586 68.6196 55.0798 66.563 55.0798 64.3169V63.3455C55.0798 58.3388 51.0067 54.2656 46 54.2656C40.9933 54.2656 36.9202 58.3388 36.9202 63.3455V64.3169C36.9202 66.563 37.7414 68.6196 39.0975 70.2059C35.7782 71.0601 32.9769 73.2142 31.2656 76.0899C29.5544 73.2142 26.7531 71.0601 23.4338 70.2059C24.7899 68.6196 25.6111 66.563 25.6111 64.3169V63.3455C25.6111 58.3388 21.5379 54.2656 16.5312 54.2656C11.5246 54.2656 7.45142 58.3388 7.45142 63.3455V64.3169C7.45142 66.563 8.27264 68.6196 9.62872 70.2059C4.09842 71.6293 0 76.6578 0 82.6261V90.2031C0 91.1956 0.804382 92 1.79688 92H90.2031C91.1956 92 92 91.1956 92 90.2031V82.6261C92 76.6578 87.9016 71.6293 82.3713 70.2059ZM69.9827 63.3455C69.9827 60.3203 72.4435 57.8594 75.4688 57.8594C78.494 57.8594 80.9548 60.3203 80.9548 63.3455V64.3169C80.9548 67.3421 78.494 69.803 75.4688 69.803C72.4435 69.803 69.9827 67.3421 69.9827 64.3169V63.3455ZM40.5139 63.3455C40.5139 60.3203 42.9748 57.8594 46 57.8594C49.0252 57.8594 51.4861 60.3203 51.4861 63.3455V64.3169C51.4861 67.3421 49.0252 69.803 46 69.803C42.9748 69.803 40.5139 67.3421 40.5139 64.3169V63.3455ZM11.0452 63.3455C11.0452 60.3203 13.506 57.8594 16.5312 57.8594C19.5565 57.8594 22.0173 60.3203 22.0173 63.3455V64.3169C22.0173 67.3421 19.5565 69.803 16.5312 69.803C13.506 69.803 11.0452 67.3421 11.0452 64.3169V63.3455ZM3.59375 82.6261C3.59375 77.5373 7.73358 73.3967 12.8231 73.3967H20.2394C25.3282 73.3967 29.4688 77.5373 29.4688 82.6261V88.4062H3.59375V82.6261ZM33.0625 82.6261C33.0625 77.5373 37.2023 73.3967 42.2918 73.3967H49.7082C54.797 73.3967 58.9375 77.5373 58.9375 82.6261V88.4062H33.0625V82.6261ZM88.4062 88.4062H62.5312V82.6261C62.5312 77.5373 66.6711 73.3967 71.7606 73.3967H79.1769C84.2657 73.3967 88.4062 77.5373 88.4062 82.6261V88.4062Z" fill="black"/>
<path d="M13.897 36.0428L13.8809 46.0197C13.8795 46.7145 14.2795 47.3484 14.907 47.646C15.1527 47.7625 15.4159 47.82 15.677 47.82C16.0848 47.82 16.4884 47.6811 16.8155 47.4129L26.9658 39.1052H38.1948L44.6187 47.1441C44.9696 47.5835 45.508 47.8362 46.0681 47.8186C46.6303 47.8046 47.1532 47.528 47.481 47.0718L53.21 39.1045H65.1065L75.2104 47.4108C75.7474 47.8523 76.4907 47.9443 77.1189 47.6474C77.7478 47.3505 78.1486 46.7173 78.1486 46.0225V36.014C83.7253 32.4315 87.1484 26.2189 87.1484 19.5522C87.1484 8.771 78.3774 0 67.5962 0H24.4038C13.6226 0 4.85156 8.771 4.85156 19.5522C4.85156 26.2414 8.2916 32.4652 13.897 36.0428ZM24.4038 3.59375H67.5962C76.396 3.59375 83.5547 10.7532 83.5547 19.5522C83.5547 25.284 80.4544 30.6044 75.4645 33.4394C74.9023 33.7581 74.5549 34.3547 74.5549 35.0012V42.2195L66.8908 35.92C66.5693 35.6553 66.1664 35.5107 65.7502 35.5107H52.2891C51.7107 35.5107 51.1681 35.7894 50.8305 36.259L45.9474 43.0492L40.4634 36.186C40.1223 35.7592 39.6057 35.5107 39.0596 35.5107H26.3242C25.9094 35.5107 25.5072 35.6546 25.1857 35.9171L17.4809 42.2245L17.4922 35.0306C17.4936 34.3807 17.144 33.7812 16.5783 33.4626C11.5618 30.6339 8.44531 25.3036 8.44531 19.5522C8.44531 10.7532 15.604 3.59375 24.4038 3.59375Z" fill="black"/>
<path d="M67.5977 10.7812H67.658H67.665C68.654 10.7812 69.4584 9.98178 69.4619 8.99139C69.4661 7.9989 68.6645 7.19171 67.6721 7.1875H67.5977C66.6052 7.1875 65.8008 7.99188 65.8008 8.98438C65.8008 9.97687 66.6052 10.7812 67.5977 10.7812Z" fill="black"/>
<path d="M73.3575 12.9453C75.2702 14.6158 76.3673 17.024 76.3673 19.5523C76.3673 21.9465 75.4162 24.1842 73.6895 25.8547C72.9764 26.5447 72.9574 27.6817 73.6467 28.3956C73.9997 28.7599 74.4686 28.9431 74.9389 28.9431C75.3888 28.9431 75.8387 28.7753 76.1876 28.4377C78.6211 26.0842 79.961 22.9292 79.961 19.5523C79.961 15.9859 78.4154 12.5908 75.7215 10.238C74.974 9.58525 73.839 9.66246 73.1862 10.41C72.5335 11.1575 72.61 12.2925 73.3575 12.9453Z" fill="black"/>
<path d="M40.4767 25.204C42.7123 27.2725 44.9198 28.7795 45.0124 28.8427C45.317 29.0504 45.6701 29.1536 46.0232 29.1536C46.3755 29.1536 46.7286 29.0497 47.0332 28.8427C47.1259 28.7795 49.3333 27.2725 51.5689 25.204C54.8686 22.1521 56.4717 19.5438 56.4717 17.2318C56.4717 13.2176 53.4177 9.9516 49.6632 9.9516C48.3668 9.9516 47.1027 10.351 46.0232 11.0803C44.9422 10.351 43.6788 9.9516 42.3824 9.9516C38.6279 9.9516 35.5739 13.2169 35.5739 17.2318C35.5739 19.5438 37.1771 22.1514 40.4767 25.204ZM42.3824 13.5453C43.2436 13.5453 44.0536 13.9335 44.6636 14.6389C45.0054 15.0334 45.5009 15.2601 46.0232 15.2601C46.5447 15.2601 47.0402 15.0334 47.382 14.6389C47.992 13.9335 48.802 13.5453 49.6632 13.5453C51.4362 13.5453 52.878 15.199 52.878 17.2318C52.878 19.242 49.0912 22.8673 46.0218 25.1506C42.9523 22.8701 39.167 19.2476 39.167 17.2318C39.1677 15.199 40.6094 13.5453 42.3824 13.5453Z" fill="black"/>
</g>
<defs>
<clipPath id="clip0_5_332">
<rect width="92" height="92" fill="white"/>
</clipPath>
</defs>
</svg>
