<svg width="92" height="16" viewBox="0 0 92 16" fill="none" xmlns="http://www.w3.org/2000/svg">
<path d="M0.399148 15L0.399148 13.4091L5.32102 8.30966C5.84186 7.75568 6.27509 7.27036 6.62074 6.85369C6.96638 6.43229 7.22443 6.0322 7.39489 5.65341C7.56534 5.27462 7.65057 4.87216 7.65057 4.44602C7.65057 3.72159 7.40199 3.14867 6.90483 2.72727C6.40767 2.30114 5.78977 2.08807 5.05114 2.08807C4.26515 2.08807 3.63778 2.32481 3.16903 2.7983C2.70502 3.26705 2.47538 3.89205 2.48011 4.6733H0.384943C0.384943 3.78788 0.588542 3.01373 0.995739 2.35085C1.40294 1.68797 1.96165 1.17424 2.67187 0.809659C3.3821 0.44034 4.18939 0.255681 5.09375 0.255681C6.00758 0.255681 6.8125 0.437973 7.50852 0.802556C8.20928 1.1624 8.75616 1.65483 9.14915 2.27983C9.54214 2.90009 9.73864 3.60085 9.73864 4.3821C9.73864 4.92188 9.63684 5.44981 9.43324 5.96591C9.23438 6.48201 8.88636 7.05729 8.3892 7.69176C7.89678 8.3215 7.20549 9.08617 6.31534 9.9858L3.42472 13.0114V13.1179H9.97301V15H0.399148ZM17.7287 15.1989C16.7486 15.1989 15.8774 15.0308 15.1151 14.6946C14.3527 14.3584 13.7491 13.892 13.304 13.2955C12.8636 12.6941 12.6269 11.9981 12.5938 11.2074H14.8239C14.8665 11.8513 15.1624 12.3627 15.7116 12.7415C16.2609 13.1203 16.9285 13.3097 17.7145 13.3097C18.5715 13.3097 19.2746 13.0919 19.8239 12.6562C20.3778 12.2159 20.6548 11.643 20.6548 10.9375C20.6548 10.2036 20.3755 9.60701 19.8168 9.14773C19.2628 8.68371 18.4815 8.4517 17.473 8.4517H16.2443V6.66193H17.473C18.2779 6.66193 18.9361 6.44886 19.4474 6.02273C19.9588 5.59659 20.2121 5.03314 20.2074 4.33239C20.2121 3.66004 19.9896 3.1179 19.5398 2.70597C19.0947 2.29403 18.5005 2.08807 17.7571 2.08807C17.0421 2.08807 16.4124 2.27983 15.8679 2.66335C15.3281 3.04214 15.0464 3.56534 15.0227 4.23295L12.8991 4.23295C12.9228 3.44223 13.1548 2.74858 13.5952 2.15199C14.0402 1.5554 14.6274 1.09138 15.3565 0.759943C16.0857 0.423768 16.8954 0.255681 17.7855 0.255681C18.7183 0.255681 19.5256 0.437973 20.2074 0.802556C20.8892 1.16714 21.4148 1.65009 21.7841 2.25142C22.1534 2.84801 22.3357 3.50379 22.331 4.21875C22.3357 5.03314 22.1108 5.72443 21.6562 6.29261C21.2017 6.8608 20.5933 7.24195 19.831 7.43608V7.54972C20.7969 7.6965 21.545 8.08002 22.0753 8.70028C22.6103 9.32055 22.8755 10.09 22.8707 11.0085C22.8755 11.8134 22.6553 12.5331 22.2102 13.1676C21.7652 13.7973 21.1544 14.2945 20.3778 14.6591C19.6013 15.0189 18.7183 15.1989 17.7287 15.1989ZM26.2994 15.1349C25.9111 15.1349 25.5773 14.9976 25.2979 14.723C25.0186 14.4437 24.8789 14.1075 24.8789 13.7145C24.8789 13.3262 25.0186 12.9948 25.2979 12.7202C25.5773 12.4408 25.9111 12.3011 26.2994 12.3011C26.6876 12.3011 27.0214 12.4408 27.3008 12.7202C27.5801 12.9948 27.7198 13.3262 27.7198 13.7145C27.7198 14.1075 27.5801 14.4437 27.3008 14.723C27.0214 14.9976 26.6876 15.1349 26.2994 15.1349ZM34.767 15.1989C33.7491 15.1989 32.8494 15.0237 32.0682 14.6733C31.2917 14.3182 30.6832 13.8352 30.2429 13.2244C29.8026 12.6089 29.5848 11.9081 29.5895 11.1222C29.5848 10.5114 29.7102 9.94792 29.9659 9.43182C30.2263 8.91098 30.5791 8.47538 31.0241 8.125C31.4692 7.77462 31.9664 7.55208 32.5156 7.45739V7.37216C31.7959 7.2017 31.2159 6.81581 30.7756 6.21449C30.34 5.60843 30.1245 4.91477 30.1293 4.13352C30.1245 3.39015 30.321 2.72727 30.7188 2.14489C31.1212 1.5625 31.6728 1.10322 32.3736 0.767045C33.0743 0.426136 33.8722 0.255681 34.767 0.255681C35.6572 0.255681 36.4503 0.426136 37.1463 0.767045C37.8423 1.10322 38.3916 1.5625 38.794 2.14489C39.1965 2.72727 39.4001 3.39015 39.4048 4.13352C39.4001 4.91951 39.1776 5.61316 38.7372 6.21449C38.2969 6.81581 37.724 7.2017 37.0185 7.37216V7.45739C37.563 7.55208 38.0554 7.77462 38.4957 8.125C38.9361 8.47538 39.2865 8.91098 39.5469 9.43182C39.8073 9.94792 39.9399 10.5114 39.9446 11.1222C39.9399 11.9081 39.715 12.6089 39.2699 13.2244C38.8295 13.8352 38.2211 14.3182 37.4446 14.6733C36.6681 15.0237 35.7756 15.1989 34.767 15.1989ZM34.767 13.402C35.6667 13.402 36.3816 13.1818 36.9119 12.7415C37.447 12.2964 37.7169 11.7093 37.7216 10.9801C37.7169 10.2225 37.4351 9.60227 36.8764 9.11932C36.3177 8.63163 35.6146 8.38778 34.767 8.38778C33.91 8.38778 33.2022 8.63163 32.6435 9.11932C32.0848 9.60227 31.8078 10.2225 31.8125 10.9801C31.8078 11.7093 32.0705 12.2964 32.6009 12.7415C33.1359 13.1818 33.858 13.402 34.767 13.402ZM34.767 6.63352C35.4915 6.63352 36.0881 6.42045 36.5568 5.99432C37.0256 5.56818 37.2623 5.00947 37.267 4.31818C37.2623 3.63636 37.0279 3.08949 36.5639 2.67756C36.1046 2.26089 35.5057 2.05256 34.767 2.05256C34.0142 2.05256 33.4081 2.26089 32.9489 2.67756C32.4896 3.08949 32.2623 3.63636 32.267 4.31818C32.2623 5.00947 32.4943 5.56818 32.9631 5.99432C33.4318 6.42045 34.0331 6.63352 34.767 6.63352ZM42.5174 15V0.454545H44.641V8.70739H44.8256L49.1722 4.09091H51.7148L47.2972 8.77131L52.0131 15H49.4066L45.6992 10.071L44.641 11.1293V15H42.5174Z" fill="#171717"/>
<path d="M58.6342 15V4.81818H60.1705V13.6776H64.7841V15H58.6342ZM66.4173 15V7.36364H67.9038V15H66.4173ZM67.168 6.18537C66.9094 6.18537 66.6874 6.09919 66.5018 5.92685C66.3195 5.75118 66.2283 5.54238 66.2283 5.30043C66.2283 5.05516 66.3195 4.84635 66.5018 4.67401C66.6874 4.49834 66.9094 4.41051 67.168 4.41051C67.4232 4.41051 67.6436 4.49834 67.8292 4.67401C68.0148 4.84635 68.1076 5.05516 68.1076 5.30043C68.1076 5.54238 68.0148 5.75118 67.8292 5.92685C67.6436 6.09919 67.4232 6.18537 67.168 6.18537ZM69.9036 15V4.81818H71.3901V10.5952H71.5194L74.562 7.36364H76.3418L73.2495 10.6399L76.5506 15H74.726L72.1309 11.5497L71.3901 12.2905V15H69.9036ZM80.6733 15.1541C79.9242 15.1541 79.2779 14.9917 78.7344 14.6669C78.1908 14.3421 77.7715 13.8864 77.4766 13.2997C77.1849 12.7098 77.0391 12.0204 77.0391 11.2315C77.0391 10.4493 77.1849 9.75994 77.4766 9.16335C77.7715 8.56676 78.1825 8.10109 78.7095 7.76633C79.2398 7.43158 79.8596 7.2642 80.5689 7.2642C81.1456 7.2642 81.6908 7.39347 82.2045 7.65199C82.7216 7.9072 83.1409 8.31652 83.4624 8.87997C83.7872 9.4401 83.9496 10.1809 83.9496 11.1023V11.6293L78.5206 11.6293C78.5405 12.3651 78.7476 12.9318 79.142 13.3295C79.5365 13.7273 80.0518 13.9261 80.6882 13.9261C81.1125 13.9261 81.4787 13.835 81.7869 13.6527C82.0952 13.4704 82.3156 13.1986 82.4482 12.8374L83.8551 13.0909C83.6861 13.7107 83.3215 14.2095 82.7614 14.5874C82.2012 14.9652 81.5052 15.1541 80.6733 15.1541ZM78.5256 10.5156L82.4929 10.5156C82.4896 9.93229 82.3139 9.45005 81.9659 9.06889C81.6179 8.68442 81.1555 8.49219 80.5788 8.49219C80.1778 8.49219 79.8265 8.58665 79.5249 8.77557C79.2266 8.96117 78.9896 9.2081 78.8139 9.51634C78.6416 9.82126 78.5455 10.1544 78.5256 10.5156ZM91.3212 9.22798L89.9739 9.46662C89.8877 9.21141 89.727 8.97775 89.4917 8.76563C89.2596 8.55019 88.9116 8.44247 88.4476 8.44247C88.0267 8.44247 87.6737 8.53693 87.3887 8.72585C87.1069 8.91146 86.9677 9.15175 86.9711 9.44673C86.9677 9.70526 87.0605 9.9124 87.2495 10.0682C87.4417 10.2206 87.7483 10.3466 88.1692 10.446L89.3823 10.7244C90.7743 11.0459 91.4703 11.7353 91.4703 12.7926C91.4703 13.2533 91.3378 13.661 91.0726 14.0156C90.8108 14.3703 90.4445 14.6487 89.9739 14.8509C89.5066 15.053 88.9647 15.1541 88.3482 15.1541C87.4898 15.1541 86.7921 14.9718 86.2551 14.6072C85.7182 14.2393 85.3868 13.7173 85.2608 13.0412L86.6976 12.8224C86.8766 13.5781 87.4235 13.956 88.3382 13.956C88.8255 13.956 89.2149 13.8549 89.5066 13.6527C89.7982 13.4472 89.9441 13.197 89.9441 12.902C89.9441 12.4148 89.5845 12.0916 88.8652 11.9325L87.5726 11.6491C86.8567 11.4901 86.3297 11.2315 85.9917 10.8736C85.6536 10.5156 85.4846 10.0665 85.4846 9.52628C85.4846 9.07552 85.6105 8.68111 85.8624 8.34304C86.1143 8.00166 86.4623 7.73651 86.9064 7.54758C87.3506 7.35866 87.8593 7.2642 88.4327 7.2642C89.258 7.2642 89.9076 7.44318 90.3816 7.80114C90.8555 8.15909 91.1687 8.63471 91.3212 9.22798Z" fill="#666666"/>
</svg>
