<svg width="162" height="162" viewBox="0 0 162 162" fill="none" xmlns="http://www.w3.org/2000/svg">
<circle cx="81.2161" cy="81.2858" r="27.0947" stroke="#F0F3F9" stroke-width="5.93856"/>
<circle cx="81.2164" cy="81.2861" r="52.3336" stroke="#F0F3F9" stroke-width="5.93856"/>
<circle cx="81.2171" cy="81.2871" r="77.5725" stroke="#F0F3F9" stroke-width="5.93856"/>
<mask id="path-4-inside-1_5_176" fill="white">
<path d="M77.5462 3.79979C77.4686 2.16271 78.7331 0.766992 80.372 0.749778C95.5319 0.590535 110.452 4.71439 123.401 12.6759C137.194 21.1562 148.111 33.5968 154.727 48.3747C161.344 63.1526 163.353 79.5816 160.492 95.5183C157.631 111.455 150.033 126.159 138.689 137.713C127.346 149.267 112.784 157.134 96.9021 160.287C81.0206 163.44 64.5575 161.733 49.6606 155.389C34.7636 149.046 22.1246 138.359 13.3923 124.724C5.19433 111.923 0.797116 97.0817 0.677864 81.9214C0.664973 80.2826 2.03723 78.9927 3.67546 79.0401C5.31368 79.0876 6.59707 80.4546 6.61477 82.0934C6.76558 96.0606 10.8358 109.727 18.3903 121.523C26.479 134.153 38.1867 144.053 51.9859 149.929C65.7851 155.805 81.0351 157.386 95.7463 154.465C110.457 151.545 123.947 144.258 134.454 133.555C144.962 122.853 152 109.232 154.65 94.4696C157.3 79.7073 155.439 64.4889 149.31 50.8C143.182 37.1111 133.069 25.5872 120.292 17.7318C108.36 10.3952 94.6205 6.57675 80.653 6.68252C79.0141 6.69493 77.6237 5.43687 77.5462 3.79979Z"/>
</mask>
<path d="M77.5462 3.79979C77.4686 2.16271 78.7331 0.766992 80.372 0.749778C95.5319 0.590535 110.452 4.71439 123.401 12.6759C137.194 21.1562 148.111 33.5968 154.727 48.3747C161.344 63.1526 163.353 79.5816 160.492 95.5183C157.631 111.455 150.033 126.159 138.689 137.713C127.346 149.267 112.784 157.134 96.9021 160.287C81.0206 163.44 64.5575 161.733 49.6606 155.389C34.7636 149.046 22.1246 138.359 13.3923 124.724C5.19433 111.923 0.797116 97.0817 0.677864 81.9214C0.664973 80.2826 2.03723 78.9927 3.67546 79.0401C5.31368 79.0876 6.59707 80.4546 6.61477 82.0934C6.76558 96.0606 10.8358 109.727 18.3903 121.523C26.479 134.153 38.1867 144.053 51.9859 149.929C65.7851 155.805 81.0351 157.386 95.7463 154.465C110.457 151.545 123.947 144.258 134.454 133.555C144.962 122.853 152 109.232 154.65 94.4696C157.3 79.7073 155.439 64.4889 149.31 50.8C143.182 37.1111 133.069 25.5872 120.292 17.7318C108.36 10.3952 94.6205 6.57675 80.653 6.68252C79.0141 6.69493 77.6237 5.43687 77.5462 3.79979Z" stroke="#703FFB" stroke-width="11.8771" mask="url(#path-4-inside-1_5_176)"/>
<mask id="path-5-inside-2_5_176" fill="white">
<path d="M78.0798 54.3709C77.8902 52.7433 79.0572 51.2547 80.6956 51.2264C83.9212 51.1705 87.1413 51.6341 90.2312 52.6053C94.2667 53.8738 97.989 55.9796 101.155 58.785C104.321 61.5905 106.859 65.0325 108.604 68.886C110.349 72.7396 111.26 76.9179 111.28 81.148C111.299 85.3781 110.426 89.5646 108.716 93.434C107.007 97.3034 104.501 100.769 101.36 103.603C98.2203 106.437 94.5175 108.577 90.4938 109.882C87.413 110.882 84.1972 111.375 80.9712 111.349C79.3327 111.335 78.152 109.858 78.3267 108.228C78.5014 106.599 79.9668 105.439 81.6051 105.413C83.9974 105.374 86.3763 104.98 88.6626 104.238C91.8921 103.19 94.8642 101.473 97.3845 99.1981C99.9048 96.9231 101.917 94.1419 103.289 91.0363C104.66 87.9306 105.362 84.5704 105.346 81.1752C105.33 77.7801 104.599 74.4264 103.198 71.3334C101.798 68.2405 99.7606 65.4779 97.2196 63.2261C94.6785 60.9744 91.6908 59.2842 88.4519 58.2661C86.1589 57.5454 83.7765 57.1729 81.3839 57.1563C79.7454 57.1449 78.2695 55.9985 78.0798 54.3709Z"/>
</mask>
<path d="M78.0798 54.3709C77.8902 52.7433 79.0572 51.2547 80.6956 51.2264C83.9212 51.1705 87.1413 51.6341 90.2312 52.6053C94.2667 53.8738 97.989 55.9796 101.155 58.785C104.321 61.5905 106.859 65.0325 108.604 68.886C110.349 72.7396 111.26 76.9179 111.28 81.148C111.299 85.3781 110.426 89.5646 108.716 93.434C107.007 97.3034 104.501 100.769 101.36 103.603C98.2203 106.437 94.5175 108.577 90.4938 109.882C87.413 110.882 84.1972 111.375 80.9712 111.349C79.3327 111.335 78.152 109.858 78.3267 108.228C78.5014 106.599 79.9668 105.439 81.6051 105.413C83.9974 105.374 86.3763 104.98 88.6626 104.238C91.8921 103.19 94.8642 101.473 97.3845 99.1981C99.9048 96.9231 101.917 94.1419 103.289 91.0363C104.66 87.9306 105.362 84.5704 105.346 81.1752C105.33 77.7801 104.599 74.4264 103.198 71.3334C101.798 68.2405 99.7606 65.4779 97.2196 63.2261C94.6785 60.9744 91.6908 59.2842 88.4519 58.2661C86.1589 57.5454 83.7765 57.1729 81.3839 57.1563C79.7454 57.1449 78.2695 55.9985 78.0798 54.3709Z" stroke="#FCAE56" stroke-width="11.8771" mask="url(#path-5-inside-2_5_176)"/>
<mask id="path-6-inside-3_5_176" fill="white">
<path d="M77.6552 29.0726C77.5437 27.4372 78.7795 26.0127 80.4185 25.989C88.8464 25.8674 97.2048 27.674 104.849 31.287C113.389 35.3235 120.753 41.4801 126.238 49.1699C131.724 56.8598 135.148 65.8265 136.185 75.2153C137.222 84.6041 135.837 94.102 132.162 102.804C128.486 111.505 122.644 119.12 115.19 124.923C107.737 130.726 98.9214 134.523 89.5843 135.952C80.2472 137.382 70.6996 136.395 61.8517 133.088C53.9321 130.127 46.8093 125.395 41.0204 119.269C39.8946 118.077 40.0541 116.198 41.3042 115.138C42.5543 114.078 44.421 114.239 45.5545 115.423C50.6821 120.78 56.9605 124.922 63.9303 127.528C71.8284 130.48 80.3512 131.36 88.6861 130.085C97.021 128.809 104.89 125.419 111.544 120.239C118.197 115.059 123.412 108.262 126.693 100.494C129.974 92.7264 131.211 84.248 130.285 75.8669C129.359 67.4859 126.302 59.4816 121.406 52.6172C116.509 45.7528 109.936 40.257 102.312 36.6538C95.585 33.4741 88.2379 31.8617 80.8227 31.9209C79.1836 31.934 77.7668 30.708 77.6552 29.0726Z"/>
</mask>
<path d="M77.6552 29.0726C77.5437 27.4372 78.7795 26.0127 80.4185 25.989C88.8464 25.8674 97.2048 27.674 104.849 31.287C113.389 35.3235 120.753 41.4801 126.238 49.1699C131.724 56.8598 135.148 65.8265 136.185 75.2153C137.222 84.6041 135.837 94.102 132.162 102.804C128.486 111.505 122.644 119.12 115.19 124.923C107.737 130.726 98.9214 134.523 89.5843 135.952C80.2472 137.382 70.6996 136.395 61.8517 133.088C53.9321 130.127 46.8093 125.395 41.0204 119.269C39.8946 118.077 40.0541 116.198 41.3042 115.138C42.5543 114.078 44.421 114.239 45.5545 115.423C50.6821 120.78 56.9605 124.922 63.9303 127.528C71.8284 130.48 80.3512 131.36 88.6861 130.085C97.021 128.809 104.89 125.419 111.544 120.239C118.197 115.059 123.412 108.262 126.693 100.494C129.974 92.7264 131.211 84.248 130.285 75.8669C129.359 67.4859 126.302 59.4816 121.406 52.6172C116.509 45.7528 109.936 40.257 102.312 36.6538C95.585 33.4741 88.2379 31.8617 80.8227 31.9209C79.1836 31.934 77.7668 30.708 77.6552 29.0726Z" stroke="#DE287A" stroke-width="11.8771" mask="url(#path-6-inside-3_5_176)"/>
</svg>
