<svg width="411" height="444" viewBox="0 0 411 444" fill="none" xmlns="http://www.w3.org/2000/svg">
<g filter="url(#filter0_d_5_405)">
<rect x="52.6602" y="12.2949" width="306.271" height="339.309" rx="8" fill="white"/>
</g>
<path fill-rule="evenodd" clip-rule="evenodd" d="M331.256 304.278L94.6326 304.278L94.6326 303.385L331.256 303.386L331.256 304.278Z" fill="#EEF0F2"/>
<path fill-rule="evenodd" clip-rule="evenodd" d="M331.256 247.132L94.6326 247.132L94.6326 246.239L331.256 246.239L331.256 247.132Z" fill="#EEF0F2"/>
<path fill-rule="evenodd" clip-rule="evenodd" d="M331.252 190.878L94.6287 190.878L94.6287 189.985L331.252 189.985L331.252 190.878Z" fill="#EEF0F2"/>
<path fill-rule="evenodd" clip-rule="evenodd" d="M331.252 134.624L94.6287 134.624L94.6287 133.731L331.252 133.731L331.252 134.624Z" fill="#EEF0F2"/>
<path d="M73.8988 303.562V302.767L76.3597 300.217C76.6201 299.94 76.8368 299.698 77.0096 299.489C77.1824 299.279 77.3114 299.079 77.3967 298.889C77.4819 298.7 77.5245 298.499 77.5245 298.286C77.5245 297.923 77.4002 297.637 77.1516 297.426C76.9031 297.213 76.5941 297.107 76.2248 297.107C75.8318 297.107 75.5181 297.225 75.2837 297.462C75.0517 297.696 74.9369 298.009 74.9393 298.399H73.8917C73.8917 297.956 73.9935 297.569 74.1971 297.238C74.4007 296.906 74.68 296.65 75.0352 296.467C75.3903 296.283 75.7939 296.19 76.2461 296.19C76.703 296.19 77.1055 296.281 77.4535 296.464C77.8039 296.644 78.0773 296.89 78.2738 297.202C78.4703 297.513 78.5685 297.863 78.5685 298.254C78.5685 298.523 78.5176 298.787 78.4158 299.045C78.3164 299.304 78.1424 299.591 77.8938 299.908C77.6476 300.223 77.302 300.606 76.8569 301.055L75.4116 302.568V302.621H78.6857V303.562H73.8988ZM80.0458 303.562V296.29H81.1076V300.416H81.1999L83.3732 298.108H84.6445L82.4357 300.448L84.7937 303.562H83.4904L81.6367 301.098L81.1076 301.627V303.562H80.0458Z" fill="#333333"/>
<path d="M72.8555 244.996V244.108L75.9982 239.143H77.3512V244.065H78.3136V244.996H77.3512V246.416H76.3036V244.996H72.8555ZM76.3107 244.065V240.45H76.2539L74.006 244.008V244.065H76.3107ZM79.5653 246.416V239.143H80.6271V243.27H80.7195L82.8928 240.961H84.1641L81.9553 243.302L84.3132 246.416H83.0099L81.1562 243.952L80.6271 244.481V246.416H79.5653Z" fill="#333333"/>
<path d="M75.5433 190.261C75.2214 190.258 74.9029 190.2 74.5881 190.087C74.2732 189.971 73.9879 189.78 73.7322 189.515C73.4766 189.25 73.2718 188.894 73.1179 188.446C72.9664 187.999 72.8906 187.44 72.8906 186.77C72.8906 185.92 73.0019 185.198 73.2244 184.604C73.447 184.007 73.763 183.553 74.1726 183.24C74.5845 182.928 75.0722 182.771 75.6357 182.771C76.0689 182.771 76.4536 182.858 76.7898 183.031C77.1259 183.201 77.3994 183.438 77.6101 183.741C77.8208 184.042 77.9534 184.387 78.0078 184.778H76.9247C76.8513 184.468 76.7057 184.217 76.4879 184.025C76.2701 183.831 75.986 183.734 75.6357 183.734C75.103 183.734 74.6875 183.966 74.3892 184.43C74.0933 184.894 73.9441 185.544 73.9418 186.379H73.995C74.1821 186.072 74.433 185.831 74.7479 185.659C75.0651 185.483 75.4155 185.396 75.799 185.396C76.2204 185.396 76.6027 185.499 76.946 185.705C77.2893 185.908 77.5627 186.19 77.7663 186.55C77.9699 186.91 78.0705 187.322 78.0682 187.786C78.0705 188.25 77.9664 188.67 77.7557 189.046C77.545 189.423 77.2502 189.721 76.8714 189.941C76.4927 190.159 76.05 190.266 75.5433 190.261ZM75.5398 189.338C75.8168 189.338 76.0653 189.269 76.2855 189.132C76.508 188.994 76.6832 188.81 76.8111 188.578C76.9413 188.346 77.0052 188.086 77.0028 187.8C77.0052 187.518 76.9437 187.264 76.8182 187.036C76.6927 186.807 76.5211 186.624 76.3033 186.49C76.0878 186.355 75.8416 186.287 75.5646 186.287C75.2853 186.287 75.0331 186.358 74.8082 186.5C74.5857 186.64 74.4081 186.826 74.2756 187.058C74.1454 187.287 74.0791 187.538 74.0767 187.811C74.0767 188.083 74.1394 188.335 74.2649 188.567C74.3928 188.799 74.5668 188.986 74.7869 189.128C75.0071 189.268 75.258 189.338 75.5398 189.338ZM79.3759 190.161V182.889H80.4377V187.015H80.53L82.7033 184.707H83.9746L81.7658 187.047L84.1238 190.161H82.8205L80.9668 187.697L80.4377 188.226V190.161H79.3759Z" fill="#333333"/>
<path d="M75.4616 134.008C74.9527 134.008 74.5028 133.92 74.1122 133.745C73.724 133.567 73.4197 133.326 73.1996 133.02C72.9794 132.713 72.8705 132.362 72.8729 131.969C72.8705 131.664 72.9332 131.382 73.0611 131.124C73.1913 130.864 73.3677 130.646 73.5902 130.471C73.8127 130.296 74.0613 130.184 74.3359 130.137V130.094C73.9761 130.009 73.6861 129.816 73.4659 129.515C73.2481 129.212 73.1404 128.866 73.1428 128.475C73.1404 128.103 73.2386 127.772 73.4375 127.481C73.6387 127.189 73.9145 126.96 74.2649 126.792C74.6153 126.621 75.0142 126.536 75.4616 126.536C75.9067 126.536 76.3033 126.621 76.6513 126.792C76.9993 126.96 77.2739 127.189 77.4751 127.481C77.6764 127.772 77.7782 128.103 77.7805 128.475C77.7782 128.868 77.6669 129.215 77.4467 129.515C77.2266 129.816 76.9401 130.009 76.5874 130.094V130.137C76.8596 130.184 77.1058 130.296 77.326 130.471C77.5462 130.646 77.7214 130.864 77.8516 131.124C77.9818 131.382 78.0481 131.664 78.0504 131.969C78.0481 132.362 77.9356 132.713 77.7131 133.02C77.4929 133.326 77.1887 133.567 76.8004 133.745C76.4122 133.92 75.9659 134.008 75.4616 134.008ZM75.4616 133.109C75.9115 133.109 76.2689 132.999 76.5341 132.779C76.8016 132.556 76.9366 132.263 76.9389 131.898C76.9366 131.519 76.7957 131.209 76.5163 130.968C76.237 130.724 75.8854 130.602 75.4616 130.602C75.0331 130.602 74.6792 130.724 74.3999 130.968C74.1205 131.209 73.982 131.519 73.9844 131.898C73.982 132.263 74.1134 132.556 74.3786 132.779C74.6461 132.999 75.0071 133.109 75.4616 133.109ZM75.4616 129.725C75.8239 129.725 76.1222 129.618 76.3565 129.405C76.5909 129.192 76.7093 128.913 76.7116 128.567C76.7093 128.226 76.5921 127.953 76.3601 127.747C76.1304 127.539 75.831 127.434 75.4616 127.434C75.0852 127.434 74.7822 127.539 74.5526 127.747C74.3229 127.953 74.2093 128.226 74.2116 128.567C74.2093 128.913 74.3253 129.192 74.5597 129.405C74.794 129.618 75.0947 129.725 75.4616 129.725ZM79.3368 133.908V126.635H80.3986V130.762H80.4909L82.6642 128.454H83.9355L81.7267 130.794L84.0847 133.908H82.7814L80.9277 131.444L80.3986 131.973V133.908H79.3368Z" fill="#333333"/>
<path d="M84.3162 82.5847V98.5847H81.4099V86.2878H81.2771C81.1209 86.5326 80.7563 86.793 80.1834 87.0691C79.6105 87.3399 78.8735 87.4753 77.9724 87.4753V85.1316C78.5245 85.1316 79.0167 85.0352 79.449 84.8425C79.8813 84.6446 80.2485 84.405 80.5506 84.1238C80.8579 83.8373 81.0948 83.5535 81.2615 83.2722C81.4282 82.991 81.5193 82.7618 81.5349 82.5847H84.3162ZM94.2556 98.8035C93.49 98.7983 92.7426 98.6654 92.0135 98.405C91.2843 98.1394 90.628 97.7097 90.0447 97.116C89.4666 96.5222 89.0056 95.7279 88.6619 94.7332C88.3181 93.7384 88.1463 92.5066 88.1463 91.0378C88.1463 89.1993 88.4015 87.6316 88.9119 86.3347C89.4275 85.0326 90.1541 84.0378 91.0916 83.3503C92.0291 82.6628 93.1385 82.3191 94.4197 82.3191C95.4301 82.3191 96.3234 82.5196 97.0994 82.9207C97.8754 83.3165 98.503 83.8608 98.9822 84.5535C99.4614 85.241 99.7582 86.0222 99.8728 86.8972H97.0213C96.8754 86.2618 96.576 85.7592 96.1228 85.3894C95.6749 85.0144 95.1072 84.8269 94.4197 84.8269C93.3103 84.8269 92.4562 85.3113 91.8572 86.28C91.2635 87.2436 90.964 88.5795 90.9588 90.2878H91.0681C91.4536 89.6003 92.0004 89.0613 92.7088 88.6707C93.4223 88.2748 94.2088 88.0769 95.0681 88.0769C96.0056 88.0769 96.8468 88.3009 97.5916 88.7488C98.3416 89.1967 98.9353 89.8139 99.3728 90.6003C99.8103 91.3816 100.026 92.2774 100.021 93.2878C100.026 94.3399 99.7869 95.2852 99.3025 96.1238C98.8234 96.9571 98.1489 97.6134 97.2791 98.0925C96.4145 98.5717 95.4067 98.8087 94.2556 98.8035ZM94.24 96.4597C94.8077 96.4597 95.3155 96.3217 95.7635 96.0457C96.2114 95.7696 96.5655 95.3972 96.826 94.9285C97.0864 94.4597 97.214 93.9337 97.2088 93.3503C97.214 92.7774 97.089 92.2592 96.8338 91.7957C96.5786 91.3321 96.2296 90.9649 95.7869 90.6941C95.3494 90.4233 94.8468 90.2878 94.2791 90.2878C93.7166 90.2878 93.2088 90.4285 92.7556 90.7097C92.3025 90.991 91.9431 91.366 91.6775 91.8347C91.4119 92.2983 91.2765 92.8113 91.2713 93.3738C91.2765 93.9311 91.4067 94.4441 91.6619 94.9128C91.9171 95.3816 92.2687 95.7566 92.7166 96.0378C93.1645 96.3191 93.6723 96.4597 94.24 96.4597ZM103.683 98.7566C103.209 98.7566 102.803 98.5899 102.465 98.2566C102.126 97.918 101.959 97.5118 101.965 97.0378C101.959 96.5691 102.126 96.168 102.465 95.8347C102.803 95.5014 103.209 95.3347 103.683 95.3347C104.147 95.3347 104.548 95.5014 104.887 95.8347C105.225 96.168 105.397 96.5691 105.402 97.0378C105.397 97.5118 105.225 97.918 104.887 98.2566C104.548 98.5899 104.147 98.7566 103.683 98.7566ZM108.291 98.5847V96.491L113.845 91.0457C114.637 90.2436 115.234 89.5613 115.635 88.9988C116.036 88.4363 116.236 87.8217 116.236 87.155C116.236 86.3998 115.984 85.8061 115.478 85.3738C114.973 84.9363 114.34 84.7175 113.58 84.7175C112.783 84.7175 112.145 84.9571 111.666 85.4363C111.192 85.9102 110.955 86.5561 110.955 87.3738H108.197C108.197 86.3582 108.429 85.4753 108.892 84.7253C109.356 83.9753 109.994 83.3946 110.806 82.9832C111.624 82.5717 112.562 82.366 113.619 82.366C114.692 82.366 115.632 82.5665 116.439 82.9675C117.252 83.3686 117.885 83.918 118.338 84.616C118.791 85.3139 119.017 86.1108 119.017 87.0066C119.017 87.6055 118.903 88.1941 118.674 88.7722C118.444 89.3503 118.041 89.9936 117.463 90.7019C116.89 91.405 116.085 92.254 115.049 93.2488L112.291 96.0535V96.1628H119.26V98.5847H108.291ZM121.986 98.5847V82.5847H124.814V91.405H125.01L129.322 86.5847H132.627L127.978 91.7644L132.9 98.5847H129.517L125.845 93.4519L124.814 94.5535V98.5847H121.986Z" fill="#2B2B2B"/>
<path d="M147.205 89.8574V98.5847H145.995L141.559 92.1841H141.478V98.5847H140.161V89.8574H141.38L145.82 96.2665H145.901V89.8574H147.205ZM151.845 98.7168C151.203 98.7168 150.649 98.5776 150.183 98.2992C149.717 98.0208 149.358 97.6302 149.105 97.1273C148.855 96.6216 148.73 96.0307 148.73 95.3546C148.73 94.6841 148.855 94.0932 149.105 93.5819C149.358 93.0705 149.71 92.6714 150.162 92.3844C150.616 92.0975 151.147 91.954 151.755 91.954C152.25 91.954 152.717 92.0648 153.157 92.2864C153.6 92.5052 153.96 92.856 154.235 93.339C154.514 93.8191 154.653 94.454 154.653 95.2438V95.6955H150C150.017 96.3262 150.194 96.812 150.532 97.1529C150.87 97.4938 151.312 97.6643 151.858 97.6643C152.221 97.6643 152.535 97.5861 152.799 97.4299C153.064 97.2736 153.252 97.0407 153.366 96.731L154.572 96.9484C154.427 97.4796 154.115 97.9072 153.635 98.231C153.154 98.5549 152.558 98.7168 151.845 98.7168ZM150.004 94.741H153.404C153.402 94.241 153.251 93.8276 152.953 93.5009C152.654 93.1714 152.258 93.0066 151.764 93.0066C151.42 93.0066 151.119 93.0876 150.86 93.2495C150.605 93.4086 150.402 93.6202 150.251 93.8844C150.103 94.1458 150.021 94.4313 150.004 94.741ZM157.474 98.5847L155.548 92.0393H156.865L158.147 96.8461H158.211L159.498 92.0393H160.815L162.093 96.8248H162.157L163.431 92.0393H164.748L162.826 98.5847H161.527L160.197 93.8589H160.099L158.77 98.5847H157.474ZM169.235 98.5847V89.8574H174.647V90.991H170.552V93.6501H174.26V94.7793H170.552V98.5847H169.235ZM178.441 98.7168C177.827 98.7168 177.292 98.5762 176.835 98.2949C176.377 98.0137 176.022 97.6202 175.769 97.1145C175.516 96.606 175.39 96.0151 175.39 95.3418C175.39 94.6628 175.516 94.0691 175.769 93.5606C176.022 93.052 176.377 92.6572 176.835 92.3759C177.292 92.0947 177.827 91.954 178.441 91.954C179.058 91.954 179.593 92.0947 180.048 92.3759C180.505 92.6572 180.86 93.052 181.113 93.5606C181.366 94.0691 181.492 94.6628 181.492 95.3418C181.492 96.0151 181.366 96.606 181.113 97.1145C180.86 97.6202 180.505 98.0137 180.048 98.2949C179.593 98.5762 179.058 98.7168 178.441 98.7168ZM178.445 97.6472C178.846 97.6472 179.175 97.5421 179.434 97.3319C179.695 97.1216 179.888 96.8418 180.013 96.4924C180.141 96.1401 180.205 95.7552 180.205 95.3376C180.205 94.9199 180.141 94.535 180.013 94.1827C179.888 93.8305 179.695 93.5492 179.434 93.339C179.175 93.1259 178.846 93.0194 178.445 93.0194C178.045 93.0194 177.714 93.1259 177.452 93.339C177.191 93.5492 176.996 93.8305 176.869 94.1827C176.741 94.535 176.677 94.9199 176.677 95.3376C176.677 95.7552 176.741 96.1401 176.869 96.4924C176.996 96.8418 177.191 97.1216 177.452 97.3319C177.714 97.5421 178.045 97.6472 178.445 97.6472ZM184.189 89.8574V98.5847H182.914V89.8574H184.189ZM187.177 89.8574V98.5847H185.903V89.8574H187.177ZM191.648 98.7168C191.034 98.7168 190.499 98.5762 190.042 98.2949C189.584 98.0137 189.229 97.6202 188.976 97.1145C188.723 96.606 188.597 96.0151 188.597 95.3418C188.597 94.6628 188.723 94.0691 188.976 93.5606C189.229 93.052 189.584 92.6572 190.042 92.3759C190.499 92.0947 191.034 91.954 191.648 91.954C192.265 91.954 192.8 92.0947 193.255 92.3759C193.712 92.6572 194.067 93.052 194.32 93.5606C194.573 94.0691 194.699 94.6628 194.699 95.3418C194.699 96.0151 194.573 96.606 194.32 97.1145C194.067 97.6202 193.712 98.0137 193.255 98.2949C192.8 98.5762 192.265 98.7168 191.648 98.7168ZM191.652 97.6472C192.053 97.6472 192.382 97.5421 192.641 97.3319C192.902 97.1216 193.096 96.8418 193.221 96.4924C193.348 96.1401 193.412 95.7552 193.412 95.3376C193.412 94.9199 193.348 94.535 193.221 94.1827C193.096 93.8305 192.902 93.5492 192.641 93.339C192.382 93.1259 192.053 93.0194 191.652 93.0194C191.252 93.0194 190.921 93.1259 190.659 93.339C190.398 93.5492 190.203 93.8305 190.076 94.1827C189.948 94.535 189.884 94.9199 189.884 95.3376C189.884 95.7552 189.948 96.1401 190.076 96.4924C190.203 96.8418 190.398 97.1216 190.659 97.3319C190.921 97.5421 191.252 97.6472 191.652 97.6472ZM197.341 98.5847L195.415 92.0393H196.732L198.015 96.8461H198.078L199.365 92.0393H200.682L201.961 96.8248H202.024L203.299 92.0393H204.615L202.694 98.5847H201.394L200.064 93.8589H199.966L198.637 98.5847H197.341ZM208.446 98.7168C207.804 98.7168 207.25 98.5776 206.784 98.2992C206.319 98.0208 205.959 97.6302 205.706 97.1273C205.456 96.6216 205.331 96.0307 205.331 95.3546C205.331 94.6841 205.456 94.0932 205.706 93.5819C205.959 93.0705 206.311 92.6714 206.763 92.3844C207.218 92.0975 207.749 91.954 208.357 91.954C208.851 91.954 209.319 92.0648 209.759 92.2864C210.202 92.5052 210.561 92.856 210.837 93.339C211.115 93.8191 211.255 94.454 211.255 95.2438V95.6955H206.601C206.618 96.3262 206.796 96.812 207.134 97.1529C207.472 97.4938 207.914 97.6643 208.459 97.6643C208.823 97.6643 209.137 97.5861 209.401 97.4299C209.665 97.2736 209.854 97.0407 209.968 96.731L211.174 96.9484C211.029 97.4796 210.716 97.9072 210.236 98.231C209.756 98.5549 209.159 98.7168 208.446 98.7168ZM206.605 94.741H210.006C210.003 94.241 209.853 93.8276 209.554 93.5009C209.256 93.1714 208.86 93.0066 208.365 93.0066C208.022 93.0066 207.721 93.0876 207.462 93.2495C207.206 93.4086 207.003 93.6202 206.853 93.8844C206.705 94.1458 206.623 94.4313 206.605 94.741ZM212.668 98.5847V92.0393H213.9V93.079H213.968C214.087 92.7268 214.298 92.4498 214.599 92.2481C214.9 92.0435 215.244 91.9412 215.63 91.9412C215.809 91.9412 215.969 91.9626 216.112 92.0052C216.254 92.0478 216.379 92.106 216.487 92.1799L216.077 93.2452C216.001 93.2055 215.914 93.1742 215.817 93.1515C215.721 93.1287 215.61 93.1174 215.485 93.1174C215.045 93.1174 214.677 93.2566 214.381 93.535C214.089 93.8106 213.942 94.1614 213.942 94.5876V98.5847H212.668ZM222.354 93.6373L221.2 93.8418C221.126 93.6231 220.988 93.4228 220.786 93.241C220.587 93.0563 220.289 92.964 219.891 92.964C219.531 92.964 219.228 93.0449 218.984 93.2069C218.742 93.366 218.623 93.5719 218.626 93.8248C218.623 94.0464 218.702 94.2239 218.864 94.3574C219.029 94.4881 219.292 94.5961 219.653 94.6813L220.692 94.9199C221.886 95.1955 222.482 95.7864 222.482 96.6927C222.482 97.0876 222.369 97.437 222.141 97.741C221.917 98.0449 221.603 98.2836 221.2 98.4569C220.799 98.6302 220.335 98.7168 219.806 98.7168C219.07 98.7168 218.472 98.5606 218.012 98.2481C217.552 97.9327 217.268 97.4853 217.16 96.9057L218.391 96.7182C218.545 97.366 219.013 97.6898 219.798 97.6898C220.215 97.6898 220.549 97.6032 220.799 97.4299C221.049 97.2537 221.174 97.0393 221.174 96.7864C221.174 96.3688 220.866 96.0918 220.249 95.9555L219.141 95.7126C218.528 95.5762 218.076 95.3546 217.786 95.0478C217.496 94.741 217.352 94.356 217.352 93.893C217.352 93.5066 217.46 93.1685 217.675 92.8787C217.891 92.5861 218.19 92.3589 218.57 92.1969C218.951 92.035 219.387 91.954 219.879 91.954C220.586 91.954 221.143 92.1074 221.549 92.4143C221.955 92.7211 222.224 93.1287 222.354 93.6373Z" fill="#666666"/>
<path d="M105.783 60.2261V50.0443H112.097V51.3667H107.319V54.469H111.644V55.7864H107.319V60.2261H105.783ZM116.523 60.3802C115.807 60.3802 115.182 60.2161 114.648 59.888C114.115 59.5599 113.7 59.1008 113.405 58.5109C113.11 57.9176 112.963 57.2282 112.963 56.4427C112.963 55.6506 113.11 54.9578 113.405 54.3646C113.7 53.7713 114.115 53.3106 114.648 52.9825C115.182 52.6543 115.807 52.4903 116.523 52.4903C117.242 52.4903 117.867 52.6543 118.397 52.9825C118.931 53.3106 119.345 53.7713 119.64 54.3646C119.935 54.9578 120.082 55.6506 120.082 56.4427C120.082 57.2282 119.935 57.9176 119.64 58.5109C119.345 59.1008 118.931 59.5599 118.397 59.888C117.867 60.2161 117.242 60.3802 116.523 60.3802ZM116.528 59.1323C116.995 59.1323 117.379 59.0097 117.681 58.7644C117.986 58.5192 118.211 58.1927 118.357 57.785C118.506 57.374 118.581 56.9249 118.581 56.4377C118.581 55.9505 118.506 55.5014 118.357 55.0904C118.211 54.6794 117.986 54.3513 117.681 54.106C117.379 53.8575 116.995 53.7332 116.528 53.7332C116.06 53.7332 115.674 53.8575 115.369 54.106C115.064 54.3513 114.837 54.6794 114.688 55.0904C114.539 55.5014 114.464 55.9505 114.464 56.4377C114.464 56.9249 114.539 57.374 114.688 57.785C114.837 58.1927 115.064 58.5192 115.369 58.7644C115.674 59.0097 116.06 59.1323 116.528 59.1323ZM123.228 50.0443V60.2261H121.742V50.0443H123.228ZM126.714 50.0443V60.2261H125.228V50.0443H126.714ZM131.931 60.3802C131.215 60.3802 130.59 60.2161 130.057 59.888C129.523 59.5599 129.109 59.1008 128.814 58.5109C128.519 57.9176 128.371 57.2282 128.371 56.4427C128.371 55.6506 128.519 54.9578 128.814 54.3646C129.109 53.7713 129.523 53.3106 130.057 52.9825C130.59 52.6543 131.215 52.4903 131.931 52.4903C132.65 52.4903 133.275 52.6543 133.805 52.9825C134.339 53.3106 134.753 53.7713 135.048 54.3646C135.343 54.9578 135.49 55.6506 135.49 56.4427C135.49 57.2282 135.343 57.9176 135.048 58.5109C134.753 59.1008 134.339 59.5599 133.805 59.888C133.275 60.2161 132.65 60.3802 131.931 60.3802ZM131.936 59.1323C132.403 59.1323 132.788 59.0097 133.089 58.7644C133.394 58.5192 133.619 58.1927 133.765 57.785C133.914 57.374 133.989 56.9249 133.989 56.4377C133.989 55.9505 133.914 55.5014 133.765 55.0904C133.619 54.6794 133.394 54.3513 133.089 54.106C132.788 53.8575 132.403 53.7332 131.936 53.7332C131.468 53.7332 131.082 53.8575 130.777 54.106C130.472 54.3513 130.245 54.6794 130.096 55.0904C129.947 55.5014 129.873 55.9505 129.873 56.4377C129.873 56.9249 129.947 57.374 130.096 57.785C130.245 58.1927 130.472 58.5192 130.777 58.7644C131.082 59.0097 131.468 59.1323 131.936 59.1323ZM138.573 60.2261L136.326 52.5897H137.862L139.358 58.1977H139.433L140.934 52.5897H142.471L143.962 58.1728H144.037L145.523 52.5897H147.059L144.817 60.2261H143.301L141.75 54.7126H141.635L140.084 60.2261H138.573ZM151.529 60.3802C150.78 60.3802 150.133 60.2178 149.59 59.893C149.046 59.5682 148.627 59.1124 148.332 58.5258C148.04 57.9358 147.895 57.2464 147.895 56.4576C147.895 55.6754 148.04 54.986 148.332 54.3894C148.627 53.7928 149.038 53.3272 149.565 52.9924C150.095 52.6577 150.715 52.4903 151.424 52.4903C152.001 52.4903 152.546 52.6195 153.06 52.8781C153.577 53.1333 153.996 53.5426 154.318 54.106C154.643 54.6662 154.805 55.4069 154.805 56.3283V56.8553H149.376C149.396 57.5911 149.603 58.1579 149.998 58.5556C150.392 58.9533 150.907 59.1522 151.544 59.1522C151.968 59.1522 152.334 59.0611 152.642 58.8788C152.951 58.6965 153.171 58.4247 153.304 58.0634L154.711 58.317C154.542 58.9368 154.177 59.4356 153.617 59.8134C153.057 60.1913 152.361 60.3802 151.529 60.3802ZM149.381 55.7417H153.348C153.345 55.1584 153.169 54.6761 152.821 54.295C152.473 53.9105 152.011 53.7183 151.434 53.7183C151.033 53.7183 150.682 53.8127 150.38 54.0016C150.082 54.1872 149.845 54.4342 149.669 54.7424C149.497 55.0473 149.401 55.3804 149.381 55.7417ZM156.454 60.2261V52.5897H157.891V53.8028H157.971C158.11 53.3918 158.355 53.0686 158.707 52.8333C159.058 52.5947 159.459 52.4754 159.91 52.4754C160.118 52.4754 160.306 52.5002 160.471 52.5499C160.637 52.5997 160.783 52.6676 160.909 52.7538L160.432 53.9967C160.342 53.9503 160.241 53.9138 160.128 53.8873C160.016 53.8608 159.886 53.8475 159.741 53.8475C159.227 53.8475 158.798 54.0099 158.453 54.3347C158.112 54.6562 157.941 55.0656 157.941 55.5627V60.2261H156.454ZM172.748 53.2609C172.555 52.6577 172.234 52.182 171.783 51.834C171.336 51.4827 170.774 51.307 170.098 51.307C169.524 51.307 169.007 51.4545 168.547 51.7495C168.086 52.0445 167.721 52.477 167.453 53.0471C167.188 53.6139 167.055 54.3082 167.055 55.1302C167.055 55.9555 167.189 56.6532 167.458 57.2232C167.726 57.7933 168.094 58.2258 168.561 58.5208C169.029 58.8158 169.561 58.9633 170.157 58.9633C170.973 58.9633 171.631 58.723 172.131 58.2424C172.632 57.7585 172.89 57.1056 172.907 56.2836H170.391V55.0158H174.393V56.1742C174.393 57.0293 174.211 57.7718 173.846 58.4015C173.485 59.0279 172.986 59.5118 172.35 59.8532C171.713 60.1946 170.983 60.3653 170.157 60.3653C169.239 60.3653 168.432 60.1548 167.736 59.7339C167.04 59.3096 166.498 58.7064 166.11 57.9242C165.723 57.142 165.529 56.214 165.529 55.1401C165.529 54.0563 165.726 53.1233 166.12 52.3411C166.515 51.5589 167.055 50.9574 167.741 50.5364C168.427 50.1155 169.209 49.9051 170.088 49.9051C170.82 49.9051 171.485 50.0476 172.081 50.3326C172.678 50.6143 173.172 51.0071 173.563 51.5109C173.957 52.0147 174.211 52.598 174.324 53.2609H172.748ZM176.224 60.2261V52.5897H177.661V53.8028H177.74C177.879 53.3918 178.125 53.0686 178.476 52.8333C178.827 52.5947 179.228 52.4754 179.679 52.4754C179.888 52.4754 180.075 52.5002 180.241 52.5499C180.407 52.5997 180.553 52.6676 180.678 52.7538L180.201 53.9967C180.112 53.9503 180.011 53.9138 179.898 53.8873C179.785 53.8608 179.656 53.8475 179.51 53.8475C178.996 53.8475 178.567 54.0099 178.223 54.3347C177.881 54.6562 177.71 55.0656 177.71 55.5627V60.2261H176.224ZM184.745 60.3802C184.029 60.3802 183.405 60.2161 182.871 59.888C182.337 59.5599 181.923 59.1008 181.628 58.5109C181.333 57.9176 181.186 57.2282 181.186 56.4427C181.186 55.6506 181.333 54.9578 181.628 54.3646C181.923 53.7713 182.337 53.3106 182.871 52.9825C183.405 52.6543 184.029 52.4903 184.745 52.4903C185.464 52.4903 186.089 52.6543 186.62 52.9825C187.153 53.3106 187.567 53.7713 187.862 54.3646C188.157 54.9578 188.305 55.6506 188.305 56.4427C188.305 57.2282 188.157 57.9176 187.862 58.5109C187.567 59.1008 187.153 59.5599 186.62 59.888C186.089 60.2161 185.464 60.3802 184.745 60.3802ZM184.75 59.1323C185.218 59.1323 185.602 59.0097 185.904 58.7644C186.209 58.5192 186.434 58.1927 186.58 57.785C186.729 57.374 186.803 56.9249 186.803 56.4377C186.803 55.9505 186.729 55.5014 186.58 55.0904C186.434 54.6794 186.209 54.3513 185.904 54.106C185.602 53.8575 185.218 53.7332 184.75 53.7332C184.283 53.7332 183.897 53.8575 183.592 54.106C183.287 54.3513 183.06 54.6794 182.911 55.0904C182.762 55.5014 182.687 55.9505 182.687 56.4377C182.687 56.9249 182.762 57.374 182.911 57.785C183.06 58.1927 183.287 58.5192 183.592 58.7644C183.897 59.0097 184.283 59.1323 184.75 59.1323ZM191.387 60.2261L189.14 52.5897H190.676L192.173 58.1977H192.247L193.749 52.5897H195.285L196.776 58.1728H196.851L198.338 52.5897H199.874L197.632 60.2261H196.115L194.564 54.7126H194.45L192.899 60.2261H191.387ZM204.849 52.5897V53.7829H203.283V57.9839C203.283 58.4148 203.374 58.6932 203.557 58.8191C203.742 58.9417 203.956 59.0031 204.198 59.0031C204.317 59.0031 204.422 58.9948 204.511 58.9782C204.601 58.9616 204.67 58.9484 204.72 58.9384L204.988 60.1664C204.902 60.1996 204.778 60.2327 204.615 60.2658C204.456 60.3023 204.259 60.3222 204.024 60.3255C203.633 60.3321 203.266 60.2625 202.925 60.1167C202.587 59.9709 202.314 59.7455 202.105 59.4406C201.899 59.1356 201.797 58.7528 201.797 58.2921V53.7829H200.678V52.5897H201.797V50.7602H203.283V52.5897H204.849ZM208.144 55.692V60.2261H206.658V50.0443H208.124V53.8326H208.219C208.398 53.4183 208.671 53.0918 209.039 52.8532C209.407 52.6113 209.887 52.4903 210.481 52.4903C211.266 52.4903 211.898 52.7322 212.375 53.2161C212.855 53.7 213.096 54.4176 213.096 55.3688V60.2261H211.609V55.5478C211.609 54.9877 211.465 54.5535 211.177 54.2452C210.888 53.9337 210.487 53.7779 209.974 53.7779C209.443 53.7779 209.006 53.9453 208.661 54.2801C208.316 54.6115 208.144 55.0821 208.144 55.692Z" fill="#333333"/>
<path d="M82.7229 55.156C82.7229 54.5673 82.8975 53.9918 83.2245 53.5023C83.5516 53.0128 84.0165 52.6313 84.5604 52.406C85.1043 52.1807 85.7028 52.1217 86.2803 52.2366C86.8577 52.3514 87.3881 52.6349 87.8044 53.0512C88.2206 53.4675 88.5041 53.9979 88.619 54.5753C88.7339 55.1527 88.6749 55.7512 88.4496 56.2952C88.2243 56.8391 87.8428 57.304 87.3533 57.631C86.8638 57.9581 86.2883 58.1327 85.6995 58.1327C84.9101 58.1327 84.153 57.8191 83.5947 57.2608C83.0365 56.7026 82.7229 55.9455 82.7229 55.156ZM81.1136 55.156C81.1136 56.0629 81.3825 56.9495 81.8863 57.7035C82.3901 58.4576 83.1063 59.0453 83.9441 59.3924C84.782 59.7395 85.7039 59.8303 86.5934 59.6534C87.4829 59.4765 88.2999 59.0399 88.9412 58.3986C89.5825 57.7574 90.0193 56.9404 90.1963 56.0509C90.3733 55.1615 90.2825 54.2395 89.9356 53.4016C89.5886 52.5637 89.0009 51.8475 88.2469 51.3436C87.4929 50.8397 86.6064 50.5707 85.6995 50.5706C85.0974 50.5706 84.5011 50.6892 83.9447 50.9196C83.3884 51.15 82.8829 51.4878 82.4571 51.9136C82.0313 52.3394 81.6935 52.8449 81.4631 53.4012C81.2327 53.9576 81.1141 54.5539 81.1141 55.156H81.1136ZM89.3941 50.3888C89.394 50.6008 89.4568 50.808 89.5745 50.9842C89.6922 51.1605 89.8595 51.2979 90.0553 51.3791C90.2511 51.4602 90.4665 51.4815 90.6744 51.4403C90.8823 51.399 91.0733 51.297 91.2232 51.1472C91.3731 50.9974 91.4752 50.8064 91.5166 50.5986C91.558 50.3907 91.5369 50.1753 91.4558 49.9794C91.3748 49.7836 91.2375 49.6162 91.0613 49.4984C90.8851 49.3806 90.678 49.3177 90.466 49.3176C90.1819 49.3177 89.9095 49.4306 89.7086 49.6315C89.5077 49.8323 89.3947 50.1047 89.3944 50.3888H89.3941ZM82.0925 62.4248C81.5262 62.4184 80.9653 62.3145 80.4342 62.1177C80.0463 61.9744 79.6954 61.7461 79.4071 61.4497C79.1102 61.162 78.8819 60.8112 78.7391 60.4233C78.542 59.8923 78.4379 59.3313 78.4313 58.765C78.388 57.8236 78.3787 57.5409 78.3787 55.1562C78.3787 52.7716 78.388 52.4895 78.4313 51.5475C78.4384 50.9812 78.5422 50.4203 78.7384 49.8891C78.8817 49.5012 79.11 49.1503 79.4064 48.862C79.6942 48.565 80.0453 48.3367 80.4335 48.194C80.9647 47.997 81.526 47.893 82.0925 47.8867C83.0339 47.8434 83.3166 47.8342 85.6995 47.8342C88.0824 47.8342 88.3663 47.8434 89.3083 47.8867C89.8745 47.8938 90.4354 47.9977 90.9666 48.1938C91.3546 48.3369 91.7056 48.5652 91.9938 48.8618C92.2904 49.15 92.5187 49.5009 92.6618 49.8889C92.8586 50.42 92.9625 50.981 92.9689 51.5473C93.0121 52.4893 93.0214 52.7714 93.0214 55.156C93.0214 57.5407 93.0128 57.8228 92.9689 58.7648C92.962 59.3311 92.8582 59.892 92.6618 60.4231C92.5131 60.8083 92.2855 61.158 91.9936 61.4498C91.7016 61.7416 91.3518 61.9691 90.9666 62.1176C90.4356 62.3144 89.8746 62.4183 89.3083 62.4247C88.367 62.4679 88.0842 62.4772 85.6995 62.4772C83.3149 62.4772 83.0328 62.4686 82.0925 62.4247V62.4248ZM82.0179 46.2802C81.2772 46.2948 80.5443 46.4351 79.8504 46.695C79.2545 46.9192 78.7146 47.2707 78.2684 47.7249C77.8137 48.1707 77.4621 48.7106 77.2383 49.3067C76.9785 50.0006 76.8383 50.7336 76.8237 51.4744C76.7797 52.4266 76.7696 52.7309 76.7696 55.156C76.7696 57.5811 76.7797 57.8855 76.8237 58.8376C76.8384 59.5784 76.9786 60.3113 77.2385 61.0052C77.4623 61.6013 77.8138 62.1413 78.2684 62.5872C78.7148 63.0412 79.2545 63.3926 79.8502 63.6173C80.5441 63.8771 81.277 64.0173 82.0178 64.0321C82.9705 64.0753 83.2743 64.0862 85.6994 64.0862C88.1245 64.0862 88.4288 64.076 89.381 64.0321C90.1217 64.0174 90.8546 63.8771 91.5485 63.6173C92.1418 63.3879 92.6807 63.037 93.1305 62.5872C93.5803 62.1374 93.9312 61.5985 94.1606 61.0052C94.4208 60.3114 94.5611 59.5784 94.5754 58.8376C94.6186 57.8848 94.6279 57.5811 94.6279 55.156C94.6279 52.7309 94.6178 52.4266 94.5754 51.4744C94.5608 50.7337 94.4205 50.0007 94.1606 49.3069C93.936 48.7112 93.5846 48.1713 93.1307 47.7249C92.6849 47.2705 92.1453 46.9189 91.5495 46.6948C90.8557 46.4348 90.1227 46.2946 89.3818 46.2802C88.4298 46.2369 88.1253 46.2261 85.6995 46.2261C83.2737 46.2261 82.9698 46.2362 82.0172 46.2802" fill="url(#paint0_radial_5_405)"/>
<path d="M82.7229 55.156C82.7229 54.5673 82.8975 53.9918 83.2245 53.5023C83.5516 53.0128 84.0165 52.6313 84.5604 52.406C85.1043 52.1807 85.7028 52.1217 86.2803 52.2366C86.8577 52.3514 87.3881 52.6349 87.8044 53.0512C88.2206 53.4675 88.5041 53.9979 88.619 54.5753C88.7339 55.1527 88.6749 55.7512 88.4496 56.2952C88.2243 56.8391 87.8428 57.304 87.3533 57.631C86.8638 57.9581 86.2883 58.1327 85.6995 58.1327C84.9101 58.1327 84.153 57.8191 83.5947 57.2608C83.0365 56.7026 82.7229 55.9455 82.7229 55.156ZM81.1136 55.156C81.1136 56.0629 81.3825 56.9495 81.8863 57.7035C82.3901 58.4576 83.1063 59.0453 83.9441 59.3924C84.782 59.7395 85.7039 59.8303 86.5934 59.6534C87.4829 59.4765 88.2999 59.0399 88.9412 58.3986C89.5825 57.7574 90.0193 56.9404 90.1963 56.0509C90.3733 55.1615 90.2825 54.2395 89.9356 53.4016C89.5886 52.5637 89.0009 51.8475 88.2469 51.3436C87.4929 50.8397 86.6064 50.5707 85.6995 50.5706C85.0974 50.5706 84.5011 50.6892 83.9447 50.9196C83.3884 51.15 82.8829 51.4878 82.4571 51.9136C82.0313 52.3394 81.6935 52.8449 81.4631 53.4012C81.2327 53.9576 81.1141 54.5539 81.1141 55.156H81.1136ZM89.3941 50.3888C89.394 50.6008 89.4568 50.808 89.5745 50.9842C89.6922 51.1605 89.8595 51.2979 90.0553 51.3791C90.2511 51.4602 90.4665 51.4815 90.6744 51.4403C90.8823 51.399 91.0733 51.297 91.2232 51.1472C91.3731 50.9974 91.4752 50.8064 91.5166 50.5986C91.558 50.3907 91.5369 50.1753 91.4558 49.9794C91.3748 49.7836 91.2375 49.6162 91.0613 49.4984C90.8851 49.3806 90.678 49.3177 90.466 49.3176C90.1819 49.3177 89.9095 49.4306 89.7086 49.6315C89.5077 49.8323 89.3947 50.1047 89.3944 50.3888H89.3941ZM82.0925 62.4248C81.5262 62.4184 80.9653 62.3145 80.4342 62.1177C80.0463 61.9744 79.6954 61.7461 79.4071 61.4497C79.1102 61.162 78.8819 60.8112 78.7391 60.4233C78.542 59.8923 78.4379 59.3313 78.4313 58.765C78.388 57.8236 78.3787 57.5409 78.3787 55.1562C78.3787 52.7716 78.388 52.4895 78.4313 51.5475C78.4384 50.9812 78.5422 50.4203 78.7384 49.8891C78.8817 49.5012 79.11 49.1503 79.4064 48.862C79.6942 48.565 80.0453 48.3367 80.4335 48.194C80.9647 47.997 81.526 47.893 82.0925 47.8867C83.0339 47.8434 83.3166 47.8342 85.6995 47.8342C88.0824 47.8342 88.3663 47.8434 89.3083 47.8867C89.8745 47.8938 90.4354 47.9977 90.9666 48.1938C91.3546 48.3369 91.7056 48.5652 91.9938 48.8618C92.2904 49.15 92.5187 49.5009 92.6618 49.8889C92.8586 50.42 92.9625 50.981 92.9689 51.5473C93.0121 52.4893 93.0214 52.7714 93.0214 55.156C93.0214 57.5407 93.0128 57.8228 92.9689 58.7648C92.962 59.3311 92.8582 59.892 92.6618 60.4231C92.5131 60.8083 92.2855 61.158 91.9936 61.4498C91.7016 61.7416 91.3518 61.9691 90.9666 62.1176C90.4356 62.3144 89.8746 62.4183 89.3083 62.4247C88.367 62.4679 88.0842 62.4772 85.6995 62.4772C83.3149 62.4772 83.0328 62.4688 82.0925 62.4248ZM82.0179 46.2802C81.2772 46.2948 80.5443 46.4351 79.8504 46.695C79.2545 46.9192 78.7146 47.2707 78.2684 47.7249C77.8137 48.1707 77.4621 48.7106 77.2383 49.3067C76.9785 50.0006 76.8383 50.7336 76.8237 51.4744C76.7797 52.4266 76.7696 52.7309 76.7696 55.156C76.7696 57.5811 76.7797 57.8855 76.8237 58.8376C76.8384 59.5784 76.9786 60.3113 77.2385 61.0052C77.4623 61.6013 77.8138 62.1413 78.2684 62.5872C78.7148 63.0412 79.2545 63.3926 79.8502 63.6173C80.5441 63.8771 81.277 64.0173 82.0178 64.0321C82.9705 64.0753 83.2743 64.0862 85.6994 64.0862C88.1245 64.0862 88.4288 64.076 89.381 64.0321C90.1217 64.0174 90.8546 63.8771 91.5485 63.6173C92.1418 63.3879 92.6807 63.037 93.1305 62.5872C93.5803 62.1374 93.9312 61.5985 94.1606 61.0052C94.4208 60.3114 94.5611 59.5784 94.5754 58.8376C94.6186 57.8848 94.6279 57.5811 94.6279 55.156C94.6279 52.7309 94.6178 52.4266 94.5754 51.4744C94.5608 50.7337 94.4205 50.0007 94.1606 49.3069C93.936 48.7112 93.5846 48.1713 93.1307 47.7249C92.6849 47.2705 92.1453 46.9189 91.5495 46.6948C90.8557 46.4348 90.1227 46.2946 89.3818 46.2802C88.4298 46.2369 88.1253 46.2261 85.6995 46.2261C83.2737 46.2261 82.9698 46.2362 82.0172 46.2802" fill="url(#paint1_radial_5_405)"/>
<path d="M284.463 48.0115H274.462C273.894 48.0115 273.349 48.2373 272.947 48.6391C272.545 49.041 272.319 49.5861 272.319 50.1545V60.1551C272.319 60.7235 272.545 61.2686 272.947 61.6705C273.349 62.0724 273.894 62.2982 274.462 62.2982H284.463C285.032 62.2982 285.577 62.0724 285.978 61.6705C286.38 61.2686 286.606 60.7235 286.606 60.1551V50.1545C286.606 49.5861 286.38 49.041 285.978 48.6391C285.577 48.2373 285.032 48.0115 284.463 48.0115ZM284.463 49.4401C284.653 49.4401 284.834 49.5154 284.968 49.6494C285.102 49.7833 285.177 49.965 285.177 50.1545V54.4405H280.177V49.4401H284.463ZM273.748 50.1545C273.748 49.965 273.823 49.7833 273.957 49.6494C274.091 49.5154 274.273 49.4401 274.462 49.4401H278.748V54.4405H273.748V50.1545ZM274.462 60.8695C274.273 60.8695 274.091 60.7942 273.957 60.6603C273.823 60.5263 273.748 60.3446 273.748 60.1551V55.8691H278.748V60.8695H274.462ZM285.177 60.1551C285.177 60.3446 285.102 60.5263 284.968 60.6603C284.834 60.7942 284.653 60.8695 284.463 60.8695H280.177V55.8691H285.177V60.1551Z" fill="#999999"/>
<circle cx="279.461" cy="55.1546" r="16.519" stroke="#EEF0F2" stroke-width="0.892917"/>
<path d="M319.437 48.7251C319.437 48.3306 319.129 48.0107 318.75 48.0107C318.37 48.0107 318.063 48.3306 318.063 48.7251V56.0012L316.763 54.649C316.494 54.37 316.059 54.37 315.791 54.649C315.523 54.9279 315.523 55.3802 315.791 55.6592L318.264 58.2308C318.337 58.3069 318.423 58.3623 318.514 58.3969C318.588 58.4248 318.667 58.44 318.75 58.44C318.857 58.44 318.958 58.4145 319.049 58.3689C319.091 58.3479 319.131 58.3223 319.168 58.292C319.194 58.2714 319.218 58.2489 319.241 58.2247L321.708 55.6592C321.976 55.3802 321.976 54.9279 321.708 54.649C321.44 54.37 321.005 54.37 320.737 54.649L319.437 56.0011V48.7251Z" fill="#999999"/>
<path d="M313.186 57.6542C313.565 57.6542 313.873 57.9741 313.873 58.3686V60.2973C313.873 60.4488 313.931 60.5942 314.034 60.7014C314.137 60.8085 314.277 60.8688 314.422 60.8688H323.077C323.223 60.8688 323.362 60.8085 323.465 60.7014C323.568 60.5942 323.626 60.4488 323.626 60.2973V58.3686C323.626 57.9741 323.934 57.6542 324.313 57.6542C324.692 57.6542 325 57.9741 325 58.3686V60.2973C325 60.8278 324.797 61.3365 324.437 61.7116C324.076 62.0867 323.587 62.2974 323.077 62.2974H314.422C313.912 62.2974 313.423 62.0867 313.062 61.7116C312.702 61.3365 312.499 60.8278 312.499 60.2973V58.3686C312.499 57.9741 312.807 57.6542 313.186 57.6542Z" fill="#999999"/>
<circle cx="318.75" cy="55.1539" r="16.519" stroke="#EEF0F2" stroke-width="0.892917"/>
<path d="M108.915 228.827C108.915 227.101 110.314 225.702 112.04 225.702C113.766 225.702 115.165 227.101 115.165 228.827V303.386H108.915V228.827Z" fill="#5F6DFF"/>
<path d="M316.071 157.393C316.071 155.667 317.47 154.268 319.196 154.268C320.922 154.268 322.322 155.667 322.322 157.393V303.385H316.071V157.393Z" fill="#5F6DFF"/>
<path d="M290.177 235.078C290.177 233.352 291.576 231.953 293.302 231.953C295.028 231.953 296.427 233.352 296.427 235.078V303.387H290.177V235.078Z" fill="#5F6DFF"/>
<path d="M264.282 178.823C264.282 177.097 265.681 175.698 267.407 175.698C269.133 175.698 270.532 177.097 270.532 178.823V303.385H264.282V178.823Z" fill="#5F6DFF"/>
<path d="M238.388 194.004C238.388 192.278 239.787 190.879 241.513 190.879C243.239 190.879 244.638 192.278 244.638 194.004V303.386H238.388V194.004Z" fill="#5F6DFF"/>
<path d="M212.493 228.827C212.493 227.101 213.893 225.701 215.619 225.701C217.345 225.701 218.744 227.101 218.744 228.827V303.385H212.493V228.827Z" fill="#5F6DFF"/>
<path d="M186.599 236.864C186.599 235.138 187.998 233.739 189.724 233.739C191.45 233.739 192.849 235.138 192.849 236.864V303.386H186.599V236.864Z" fill="#5F6DFF"/>
<path d="M160.703 155.608C160.703 153.882 162.103 152.482 163.829 152.482C165.555 152.482 166.954 153.882 166.954 155.608V303.385H160.703V155.608Z" fill="#5F6DFF"/>
<path d="M134.813 260.078C134.813 258.352 136.213 256.953 137.939 256.953C139.665 256.953 141.064 258.352 141.064 260.078V303.385H134.813V260.078Z" fill="#5F6DFF"/>
<defs>
<filter id="filter0_d_5_405" x="0.660156" y="0.294922" width="410.271" height="443.309" filterUnits="userSpaceOnUse" color-interpolation-filters="sRGB">
<feFlood flood-opacity="0" result="BackgroundImageFix"/>
<feColorMatrix in="SourceAlpha" type="matrix" values="0 0 0 0 0 0 0 0 0 0 0 0 0 0 0 0 0 0 127 0" result="hardAlpha"/>
<feMorphology radius="18" operator="erode" in="SourceAlpha" result="effect1_dropShadow_5_405"/>
<feOffset dy="40"/>
<feGaussianBlur stdDeviation="35"/>
<feColorMatrix type="matrix" values="0 0 0 0 0 0 0 0 0 0 0 0 0 0 0 0 0 0 0.1 0"/>
<feBlend mode="normal" in2="BackgroundImageFix" result="effect1_dropShadow_5_405"/>
<feBlend mode="normal" in="SourceGraphic" in2="effect1_dropShadow_5_405" result="shape"/>
</filter>
<radialGradient id="paint0_radial_5_405" cx="0" cy="0" r="1" gradientUnits="userSpaceOnUse" gradientTransform="translate(79.1423 64.1704) scale(23.3137)">
<stop offset="0.09" stop-color="#FA8F21"/>
<stop offset="0.78" stop-color="#D82D7E"/>
</radialGradient>
<radialGradient id="paint1_radial_5_405" cx="0" cy="0" r="1" gradientUnits="userSpaceOnUse" gradientTransform="translate(87.6009 64.9704) scale(18.3744)">
<stop offset="0.64" stop-color="#8C3AAA" stop-opacity="0"/>
<stop offset="1" stop-color="#8C3AAA"/>
</radialGradient>
</defs>
</svg>
